<?xml version="1.0" standalone="no"?>
<!DOCTYPE svg PUBLIC "-//W3C//DTD SVG 20010904//EN"
 "http://www.w3.org/TR/2001/REC-SVG-20010904/DTD/svg10.dtd">
<svg version="1.0" xmlns="http://www.w3.org/2000/svg"
 width="655.000000pt" height="1280.000000pt" viewBox="0 0 655.000000 1280.000000"
 preserveAspectRatio="xMidYMid meet">
<metadata>
Created by potrace 1.15, written by Peter Selinger 2001-2017
</metadata>
<g transform="translate(0.000000,1280.000000) scale(0.100000,-0.100000)"
fill="#000000" stroke="none">
<path d="M4984 12573 c-120 -180 -143 -218 -104 -173 l22 25 -14 -25 c-9 -14
-21 -25 -28 -25 -8 0 -15 -6 -18 -14 -3 -9 0 -11 9 -6 8 5 11 4 6 -1 -5 -5
-14 -9 -19 -9 -6 0 -13 -6 -16 -14 -3 -9 0 -11 9 -6 8 5 11 4 6 -1 -5 -5 -14
-9 -19 -9 -6 0 -13 -6 -16 -14 -3 -9 0 -11 9 -6 8 5 11 4 6 -1 -5 -5 -13 -9
-18 -9 -7 0 -269 -381 -269 -392 0 -2 5 -1 12 3 7 4 8 3 4 -5 -4 -6 -11 -9
-15 -6 -11 6 -303 -433 -296 -445 3 -5 0 -12 -6 -16 -8 -5 -9 -3 -4 7 8 12 6
12 -8 0 -20 -16 -23 -36 -4 -25 7 4 9 3 4 -2 -5 -5 -14 -9 -20 -9 -5 0 -12 -6
-15 -14 -3 -9 0 -11 9 -6 8 5 11 4 6 -1 -5 -5 -14 -9 -20 -9 -5 0 -12 -6 -15
-14 -3 -9 0 -11 9 -6 8 5 11 4 6 -1 -5 -5 -14 -9 -20 -9 -5 0 -12 -6 -15 -14
-3 -9 0 -11 9 -6 8 5 11 4 6 -1 -5 -5 -13 -9 -17 -9 -9 0 -290 -412 -290 -424
0 -3 10 5 21 19 l21 25 -14 -25 c-9 -14 -21 -25 -27 -25 -15 0 -283 -403 -276
-415 3 -5 0 -12 -6 -16 -8 -5 -10 -2 -5 7 4 8 -2 3 -14 -10 -11 -13 -19 -30
-16 -37 3 -7 0 -16 -6 -20 -7 -5 -8 -2 -3 7 8 12 6 12 -8 0 -20 -16 -23 -36
-4 -25 7 4 9 3 4 -2 -5 -5 -14 -9 -20 -9 -5 0 -12 -6 -15 -14 -3 -9 0 -11 9
-6 8 5 11 4 6 -1 -5 -5 -13 -9 -17 -9 -9 0 -330 -472 -330 -484 0 -3 10 5 21
19 l21 25 -14 -25 c-9 -14 -21 -25 -27 -25 -15 0 -283 -403 -276 -415 3 -5 0
-12 -6 -16 -8 -5 -9 -3 -4 7 8 12 6 12 -8 0 -20 -16 -23 -36 -4 -25 7 4 9 3 4
-2 -5 -5 -14 -9 -19 -9 -6 0 -13 -6 -16 -14 -3 -9 0 -11 9 -6 8 5 11 4 6 -1
-5 -5 -13 -9 -17 -9 -9 0 -330 -472 -330 -484 0 -3 10 5 21 19 l21 25 -14 -25
c-9 -14 -20 -25 -26 -25 -13 0 -41 -35 -41 -50 -1 -5 9 1 20 15 l21 25 -14
-25 c-9 -14 -21 -25 -27 -25 -15 0 -263 -373 -256 -385 3 -5 0 -12 -6 -16 -8
-5 -9 -3 -4 7 8 12 6 12 -8 0 -20 -16 -23 -36 -5 -25 8 4 10 3 5 -2 -5 -5 -13
-9 -18 -9 -8 0 -369 -532 -369 -544 0 -3 10 5 21 19 l21 25 -14 -25 c-9 -14
-21 -25 -27 -25 -15 0 -283 -403 -276 -415 3 -5 0 -12 -6 -16 -8 -4 -9 -3 -5
4 4 7 5 12 2 12 -6 0 -369 -538 -374 -555 -2 -5 6 1 18 15 l22 25 -14 -25 c-9
-14 -21 -25 -27 -25 -15 0 -303 -433 -296 -445 3 -5 0 -12 -6 -16 -8 -5 -9 -3
-4 7 8 12 6 12 -8 0 -20 -16 -23 -36 -4 -25 7 4 9 3 4 -2 -5 -5 -13 -9 -18 -9
-8 0 -329 -473 -329 -484 0 -3 10 5 21 19 l21 25 -14 -25 c-9 -14 -20 -25 -26
-25 -13 0 -41 -35 -41 -50 -1 -5 9 1 20 15 l21 25 -14 -25 c-9 -14 -21 -25
-27 -25 -15 0 -283 -403 -276 -415 3 -5 0 -12 -6 -16 -8 -5 -9 -3 -4 7 8 12 6
12 -8 0 -20 -16 -23 -36 -5 -25 8 4 10 3 5 -2 -5 -5 -14 -9 -19 -9 -6 0 -13
-6 -16 -14 -3 -9 0 -11 8 -6 9 5 11 4 6 -4 -4 -6 -11 -9 -15 -6 -8 4 -19 -10
-74 -95 l-16 -25 1334 3 c1162 2 1335 0 1335 -12 0 -14 -19 -90 -106 -423 -89
-344 -106 -409 -144 -558 -23 -88 -54 -209 -70 -270 -16 -60 -52 -200 -80
-310 -28 -110 -65 -251 -81 -312 -16 -62 -42 -164 -58 -225 -16 -62 -53 -203
-81 -313 -28 -110 -65 -251 -81 -312 -16 -62 -42 -164 -58 -225 -16 -62 -53
-203 -81 -313 -28 -110 -64 -249 -80 -310 -16 -60 -45 -172 -64 -247 -20 -76
-51 -198 -70 -270 -19 -73 -62 -239 -95 -368 -34 -129 -84 -322 -111 -428 -28
-107 -48 -197 -45 -202 3 -5 0 -10 -6 -12 -7 -2 -10 -10 -8 -16 2 -7 55 59
117 148 62 88 110 165 107 170 -3 5 0 12 6 16 8 4 9 3 5 -4 -4 -7 -5 -12 -3
-12 11 0 448 631 442 639 -3 5 0 13 6 17 8 4 9 3 5 -4 -4 -7 -5 -12 -3 -12 11
0 307 431 302 440 -3 5 0 12 6 16 8 4 9 3 5 -4 -4 -7 -5 -12 -2 -12 11 0 67
91 61 99 -3 5 0 13 6 17 8 4 9 3 5 -4 -4 -7 -5 -12 -2 -12 11 0 377 531 371
539 -3 5 0 13 6 17 8 4 9 3 5 -4 -4 -7 -5 -12 -3 -12 11 0 378 531 372 539 -3
5 0 13 6 17 8 4 9 3 5 -4 -4 -7 -5 -12 -2 -12 11 0 377 531 371 539 -3 5 0 13
6 17 8 4 9 3 5 -4 -4 -7 -5 -12 -3 -12 6 0 147 199 147 206 0 3 -6 2 -12 -2
-8 -4 -10 -3 -5 2 5 5 13 9 17 9 14 0 232 314 225 324 -3 5 0 13 6 17 8 4 9 3
5 -4 -4 -7 -5 -12 -3 -12 6 0 147 199 147 206 0 3 -6 2 -12 -2 -8 -4 -10 -3
-5 2 5 5 13 9 17 9 14 0 232 314 225 324 -3 5 0 13 6 17 8 4 9 3 5 -4 -4 -7
-5 -12 -3 -12 6 0 147 199 147 206 0 3 -6 2 -12 -2 -8 -4 -10 -3 -5 2 5 5 13
9 17 9 14 0 232 314 225 324 -3 5 0 13 6 17 8 4 9 3 5 -4 -4 -7 -5 -12 -2 -12
10 0 116 161 111 170 -3 5 0 12 6 16 8 4 9 3 5 -4 -4 -7 -5 -12 -3 -12 11 0
258 361 252 369 -3 5 0 13 6 17 8 4 9 3 5 -4 -4 -7 -5 -12 -3 -12 11 0 378
531 372 539 -3 5 0 13 6 17 8 4 9 3 5 -4 -4 -7 -5 -12 -2 -12 10 0 116 161
111 170 -3 5 0 12 6 16 8 4 9 3 5 -4 -4 -7 -5 -12 -3 -12 11 0 258 361 252
369 -3 5 0 13 6 17 8 4 9 3 5 -4 -4 -7 -5 -12 -2 -12 10 0 116 161 111 170 -3
5 0 12 6 16 8 4 9 3 5 -4 -4 -7 -5 -12 -2 -12 5 0 96 128 96 136 0 3 -5 2 -12
-2 -7 -4 -8 -3 -4 5 4 6 11 9 15 7 11 -7 164 212 156 223 -3 5 0 13 6 17 8 4
9 3 5 -4 -4 -7 -5 -12 -2 -12 10 0 116 161 111 170 -3 5 0 12 6 16 8 5 10 2 5
-7 -12 -24 29 30 113 149 l80 112 -1365 0 c-1295 0 -1364 1 -1364 18 0 9 20
98 44 197 25 99 70 281 100 405 30 124 82 338 116 475 153 626 183 745 240
980 57 235 87 354 240 980 34 138 86 350 116 473 233 955 265 1085 359 1466
47 192 84 351 82 353 -2 2 -57 -77 -123 -174z m99 105 c-3 -15 -9 -26 -13 -23
-4 3 -40 -45 -80 -106 -40 -60 -77 -112 -82 -115 -5 -4 32 57 84 134 51 77 94
139 95 139 1 -1 -1 -14 -4 -29z m-19 -82 c-3 -15 -8 -25 -11 -23 -2 3 -1 17 3
31 3 15 8 25 11 23 2 -3 1 -17 -3 -31z m-20 -80 c-3 -15 -8 -25 -11 -23 -2 3
-1 17 3 31 3 15 8 25 11 23 2 -3 1 -17 -3 -31z m-20 -85 c-4 -17 -9 -30 -11
-27 -3 2 -2 19 2 36 9 41 17 33 9 -9z m-17 -63 c-3 -8 -6 -5 -6 6 -1 11 2 17
5 13 3 -3 4 -12 1 -19z m-10 -40 c-3 -8 -6 -5 -6 6 -1 11 2 17 5 13 3 -3 4
-12 1 -19z m-10 -40 c-3 -8 -6 -5 -6 6 -1 11 2 17 5 13 3 -3 4 -12 1 -19z
m-227 -78 c-22 -33 -43 -60 -46 -60 -2 0 14 27 36 60 22 33 43 60 46 60 2 0
-14 -27 -36 -60z m217 38 c-3 -8 -6 -5 -6 6 -1 11 2 17 5 13 3 -3 4 -12 1 -19z
m-10 -40 c-3 -8 -6 -5 -6 6 -1 11 2 17 5 13 3 -3 4 -12 1 -19z m-10 -40 c-3
-8 -6 -5 -6 6 -1 11 2 17 5 13 3 -3 4 -12 1 -19z m-257 -47 c-5 -11 -15 -23
-21 -27 -6 -3 -3 5 6 20 20 30 30 35 15 7z m244 -20 c-4 -17 -9 -30 -11 -27
-3 2 -2 19 2 36 9 41 17 33 9 -9z m-284 -40 c-5 -11 -15 -23 -21 -27 -6 -3 -3
5 6 20 20 30 30 35 15 7z m264 -40 c-4 -17 -9 -30 -11 -27 -3 2 -2 19 2 36 9
41 17 33 9 -9z m-304 -20 c-5 -11 -15 -23 -21 -27 -6 -3 -3 5 6 20 20 30 30
35 15 7z m284 -60 c-4 -17 -9 -30 -11 -27 -3 2 -2 19 2 36 9 41 17 33 9 -9z
m-324 0 c-5 -11 -15 -23 -21 -27 -6 -3 -3 5 6 20 20 30 30 35 15 7z m304 -80
c-4 -17 -9 -30 -11 -27 -3 2 -2 19 2 36 9 41 17 33 9 -9z m-494 -201 c-77
-115 -142 -210 -145 -210 -3 0 58 95 135 210 77 116 142 210 145 210 3 0 -58
-94 -135 -210z m471 114 c-5 -16 -10 -21 -10 -12 -1 18 10 51 15 45 2 -1 -1
-16 -5 -33z m-233 -30 c-3 -14 -5 -12 -10 9 -3 19 -2 25 4 19 6 -6 8 -18 6
-28z m-37 -11 c-12 -20 -14 -14 -5 12 4 9 9 14 11 11 3 -2 0 -13 -6 -23z m253
-37 c-3 -15 -8 -25 -11 -23 -2 3 -1 17 3 31 3 15 8 25 11 23 2 -3 1 -17 -3
-31z m-234 -32 c-5 -27 -19 -87 -30 -134 -11 -47 -29 -125 -41 -175 -11 -49
-23 -92 -26 -95 -6 -6 0 28 33 170 44 187 53 224 59 258 4 18 9 32 11 29 2 -2
0 -26 -6 -53z m-37 31 c-3 -9 -8 -14 -10 -11 -3 3 -2 9 2 15 9 16 15 13 8 -4z
m-23 -45 c-6 -11 -13 -20 -16 -20 -2 0 0 9 6 20 6 11 13 20 16 20 2 0 0 -9 -6
-20z m274 -34 c-3 -15 -8 -25 -11 -23 -2 3 -1 17 3 31 3 15 8 25 11 23 2 -3 1
-17 -3 -31z m-20 -85 c-4 -17 -9 -30 -11 -27 -3 2 -2 19 2 36 9 41 17 33 9 -9z
m-330 2 c-60 -94 -87 -133 -92 -133 -2 0 4 12 14 28 60 93 87 132 92 132 2 0
-4 -12 -14 -27z m310 -82 c-4 -17 -9 -30 -11 -27 -3 2 -2 19 2 36 9 41 17 33
9 -9z m-295 -76 c-22 -90 -41 -156 -34 -115 2 14 6 43 10 65 4 26 -113 -195
-339 -645 -190 -377 -345 -682 -345 -678 -1 5 153 316 341 692 217 434 345
681 351 673 5 -8 7 -5 5 8 -2 18 21 89 27 83 2 -2 -6 -39 -16 -83z m278 13
c-3 -8 -6 -5 -6 6 -1 11 2 17 5 13 3 -3 4 -12 1 -19z m-10 -40 c-3 -8 -6 -5
-6 6 -1 11 2 17 5 13 3 -3 4 -12 1 -19z m-423 -30 c-21 -36 -108 -164 -117
-173 -12 -12 9 24 71 118 25 37 47 67 49 67 2 0 1 -6 -3 -12z m413 -10 c-3 -8
-6 -5 -6 6 -1 11 2 17 5 13 3 -3 4 -12 1 -19z m-367 -8 c-6 -11 -13 -20 -16
-20 -2 0 0 9 6 20 6 11 13 20 16 20 2 0 0 -9 -6 -20z m-256 -35 c-9 -14 -18
-25 -21 -25 -5 0 5 18 20 38 17 22 18 13 1 -13z m613 3 c-3 -8 -6 -5 -6 6 -1
11 2 17 5 13 3 -3 4 -12 1 -19z m-394 -33 c-9 -19 -21 -35 -25 -35 -5 0 -6 -5
-2 -12 4 -7 3 -8 -4 -4 -8 5 -3 19 15 46 32 49 38 51 16 5z m164 -17 c-3 -7
-5 -2 -5 12 0 14 2 19 5 13 2 -7 2 -19 0 -25z m217 -12 c-3 -21 -8 -35 -11
-32 -2 2 -1 20 3 40 3 21 8 35 11 32 2 -2 1 -20 -3 -40z m-644 -6 c-12 -16
-24 -30 -26 -30 -3 0 4 14 16 30 12 17 24 30 26 30 3 0 -4 -13 -16 -30z m367
-2 c-3 -7 -5 -2 -5 12 0 14 2 19 5 13 2 -7 2 -19 0 -25z m32 -99 c-32 -142
-37 -157 -38 -133 -1 12 3 34 8 50 6 16 17 64 27 107 9 43 18 76 20 74 3 -2
-5 -47 -17 -98z m-173 69 c5 -7 3 -8 -6 -3 -9 6 -12 4 -8 -7 4 -8 0 -15 -7
-15 -10 0 -11 5 -4 19 11 21 15 22 25 6z m129 -20 c-4 -18 -19 -87 -35 -153
-15 -66 -42 -183 -60 -260 -44 -190 -59 -244 -59 -219 -1 12 3 34 8 50 5 16
24 92 41 169 18 77 45 194 60 260 16 66 31 135 35 153 4 17 9 32 12 32 2 0 2
-15 -2 -32z m-395 -7 c-5 -11 -15 -23 -21 -27 -6 -3 -3 5 6 20 20 30 30 35 15
7z m664 -20 c-4 -17 -9 -30 -11 -27 -3 2 -2 19 2 36 9 41 17 33 9 -9z m-704
-40 c-5 -11 -15 -23 -21 -27 -6 -3 -3 5 6 20 20 30 30 35 15 7z m174 -8 c-60
-94 -87 -133 -92 -133 -2 0 4 12 14 28 60 93 87 132 92 132 2 0 -4 -12 -14
-27z m60 0 c-60 -94 -87 -133 -92 -133 -2 0 4 12 14 28 60 93 87 132 92 132 2
0 -4 -12 -14 -27z m450 -32 c-4 -17 -9 -30 -11 -27 -3 2 -2 19 2 36 9 41 17
33 9 -9z m-443 -14 c-10 -9 -11 -8 -5 6 3 10 9 15 12 12 3 -3 0 -11 -7 -18z
m-281 -6 c-5 -11 -15 -23 -21 -27 -6 -3 -3 5 6 20 20 30 30 35 15 7z m261 -34
c-10 -9 -11 -8 -5 6 3 10 9 15 12 12 3 -3 0 -11 -7 -18z m443 -26 c-4 -17 -9
-30 -11 -27 -3 2 -2 19 2 36 9 41 17 33 9 -9z m-744 0 c-5 -11 -15 -23 -21
-27 -6 -3 -3 5 6 20 20 30 30 35 15 7z m281 -14 c-10 -9 -11 -8 -5 6 3 10 9
15 12 12 3 -3 0 -11 -7 -18z m228 -66 c-6 -29 -13 -50 -15 -48 -3 2 1 28 7 56
6 29 13 50 15 48 3 -2 -1 -28 -7 -56z m-248 26 c-10 -9 -11 -8 -5 6 3 10 9 15
12 12 3 -3 0 -11 -7 -18z m463 -26 c-4 -17 -9 -30 -11 -27 -3 2 -2 19 2 36 9
41 17 33 9 -9z m-508 -70 c-20 -39 -38 -71 -41 -71 -3 0 12 34 32 75 20 41 39
73 41 71 2 -2 -13 -36 -32 -75z m-112 32 c-60 -94 -87 -133 -92 -133 -2 0 4
12 14 28 60 93 87 132 92 132 2 0 -4 -12 -14 -27z m-181 4 c-45 -72 -255 -377
-258 -377 -3 0 53 88 125 195 72 107 133 195 136 195 3 0 1 -6 -3 -13z m221
-34 c-60 -94 -87 -133 -92 -133 -2 0 4 12 14 28 60 93 87 132 92 132 2 0 -4
-12 -14 -27z m557 -19 c-5 -16 -10 -21 -10 -12 -1 18 10 51 15 45 2 -1 -1 -16
-5 -33z m-214 -6 c-3 -7 -5 -2 -5 12 0 14 2 19 5 13 2 -7 2 -19 0 -25z m-27
-119 c-12 -51 -24 -96 -27 -99 -3 -3 -3 6 0 20 3 14 13 60 22 103 10 43 19 76
21 74 3 -2 -5 -46 -16 -98z m224 47 c-3 -15 -8 -25 -11 -23 -2 3 -1 17 3 31 3
15 8 25 11 23 2 -3 1 -17 -3 -31z m-868 -702 c-195 -390 -355 -706 -355 -702
-1 11 703 1418 707 1414 2 -2 -157 -323 -352 -712z m228 644 c-22 -38 -128
-194 -137 -203 -13 -12 10 25 81 133 30 45 57 82 59 82 2 0 1 -6 -3 -12z m620
-27 c-4 -17 -9 -30 -11 -27 -3 2 -2 19 2 36 9 41 17 33 9 -9z m-710 -18 c-60
-94 -87 -133 -92 -133 -2 0 4 12 14 28 60 93 87 132 92 132 2 0 -4 -12 -14
-27z m690 -62 c-4 -17 -9 -30 -11 -27 -3 2 -2 19 2 36 9 41 17 33 9 -9z m-217
-23 c-3 -7 -5 -2 -5 12 0 14 2 19 5 13 2 -7 2 -19 0 -25z m-27 -114 c-11 -49
-29 -129 -41 -179 -11 -49 -23 -92 -26 -95 -7 -6 0 28 37 185 15 66 31 135 35
153 4 18 9 31 11 29 3 -2 -4 -44 -16 -93z m224 57 c-4 -17 -9 -30 -11 -27 -3
2 -2 19 2 36 9 41 17 33 9 -9z m-284 -77 c-11 -49 -29 -129 -41 -179 -11 -49
-23 -92 -26 -95 -7 -6 0 28 37 185 15 66 31 135 35 153 4 18 9 31 11 29 3 -2
-4 -44 -16 -93z m267 14 c-3 -8 -6 -5 -6 6 -1 11 2 17 5 13 3 -3 4 -12 1 -19z
m-803 -25 c-60 -94 -87 -133 -92 -133 -2 0 4 12 14 28 60 93 87 132 92 132 2
0 -4 -12 -14 -27z m791 -33 c-9 -41 -17 -33 -9 9 4 17 9 30 11 27 3 -2 2 -19
-2 -36z m-751 3 c-53 -83 -67 -103 -71 -103 -3 0 3 12 13 28 53 82 67 102 71
102 3 0 -3 -12 -13 -27z m-300 -68 c-9 -14 -18 -25 -21 -25 -5 0 5 18 20 38
17 22 18 13 1 -13z m1025 -39 c-7 -31 -14 -54 -16 -52 -3 3 1 30 8 60 7 31 14
54 16 52 3 -3 -1 -30 -8 -60z m-1109 -86 c-33 -49 -63 -90 -66 -90 -2 0 23 41
56 90 33 50 63 90 66 90 2 0 -23 -40 -56 -90z m224 38 c-21 -36 -108 -164
-117 -173 -12 -12 9 24 71 118 25 37 47 67 49 67 2 0 1 -6 -3 -12z m60 0 c-22
-38 -128 -194 -137 -203 -13 -12 10 25 81 133 30 45 57 82 59 82 2 0 1 -6 -3
-12z m800 -57 c-4 -17 -9 -30 -11 -27 -3 2 -2 19 2 36 9 41 17 33 9 -9z m-217
-43 c-3 -7 -5 -2 -5 12 0 14 2 19 5 13 2 -7 2 -19 0 -25z m-60 -20 c-3 -7 -5
-2 -5 12 0 14 2 19 5 13 2 -7 2 -19 0 -25z m257 -17 c-4 -17 -9 -30 -11 -27
-3 2 -2 19 2 36 9 41 17 33 9 -9z m-225 -82 c-32 -142 -37 -157 -38 -133 -1
12 3 34 8 50 6 16 17 64 27 107 9 43 18 76 20 74 3 -2 -5 -47 -17 -98z m-919
62 c-5 -11 -15 -23 -21 -27 -6 -3 -3 5 6 20 20 30 30 35 15 7z m859 -82 c-32
-142 -37 -157 -38 -133 -1 12 3 34 8 50 6 16 17 64 27 107 9 43 18 76 20 74 3
-2 -5 -47 -17 -98z m265 22 c-4 -17 -9 -30 -11 -27 -3 2 -2 19 2 36 9 41 17
33 9 -9z m-1164 0 c-5 -11 -15 -23 -21 -27 -6 -3 -3 5 6 20 20 30 30 35 15 7z
m513 -6 c-3 -9 -8 -14 -10 -11 -3 3 -2 9 2 15 9 16 15 13 8 -4z m-329 -22
c-60 -94 -87 -133 -92 -133 -2 0 4 12 14 28 60 93 87 132 92 132 2 0 -4 -12
-14 -27z m309 -18 c-3 -9 -8 -14 -10 -11 -3 3 -2 9 2 15 9 16 15 13 8 -4z
m-533 -14 c-5 -11 -15 -23 -21 -27 -6 -3 -3 5 6 20 20 30 30 35 15 7z m1184
-20 c-4 -17 -9 -30 -11 -27 -3 2 -2 19 2 36 9 41 17 33 9 -9z m-940 -8 c-53
-83 -67 -103 -71 -103 -3 0 3 12 13 28 53 82 67 102 71 102 3 0 -3 -12 -13
-27z m269 2 c-3 -9 -8 -14 -10 -11 -3 3 -2 9 2 15 9 16 15 13 8 -4z m647 -85
c-5 -22 -8 -27 -9 -13 -1 21 9 56 14 51 2 -2 0 -19 -5 -38z m-1240 -9 c-5 -11
-15 -23 -22 -27 -7 -5 -8 -2 -3 7 21 37 44 55 25 20z m1029 -40 c-6 -29 -13
-50 -15 -48 -3 2 1 28 7 56 6 29 13 50 15 48 3 -2 -1 -28 -7 -56z m-60 -20
c-6 -29 -13 -50 -15 -48 -3 2 1 28 7 56 6 29 13 50 15 48 3 -2 -1 -28 -7 -56z
m-436 34 c-3 -9 -8 -14 -10 -11 -3 3 -2 9 2 15 9 16 15 13 8 -4z m691 -44 c-4
-17 -9 -30 -11 -27 -3 2 -2 19 2 36 9 41 17 33 9 -9z m-1344 -106 c-50 -74
-93 -135 -95 -135 -3 0 35 61 85 135 50 74 93 135 95 135 3 0 -35 -61 -85
-135z m284 113 c-21 -36 -108 -164 -117 -173 -12 -12 9 24 71 118 25 37 47 67
49 67 2 0 1 -6 -3 -12z m60 0 c-21 -36 -108 -164 -117 -173 -12 -12 9 24 71
118 25 37 47 67 49 67 2 0 1 -6 -3 -12z m783 -70 c-3 -7 -5 -2 -5 12 0 14 2
19 5 13 2 -7 2 -19 0 -25z m197 -17 c-4 -17 -9 -30 -11 -27 -3 2 -2 19 2 36 9
41 17 33 9 -9z m-274 -83 c-12 -51 -26 -104 -31 -118 l-9 -25 4 25 c11 65 51
230 54 221 2 -6 -6 -52 -18 -103z m50 -19 c-12 -51 -24 -96 -27 -99 -3 -3 -3
6 0 20 3 14 13 60 22 103 10 43 19 76 21 74 3 -2 -5 -46 -16 -98z m204 22 c-4
-17 -9 -30 -11 -27 -3 2 -2 19 2 36 9 41 17 33 9 -9z m-25 -100 c-6 -29 -13
-50 -15 -48 -3 2 1 28 7 56 6 29 13 50 15 48 3 -2 -1 -28 -7 -56z m-1155 22
c-60 -94 -87 -133 -92 -133 -2 0 4 12 14 28 60 93 87 132 92 132 2 0 -4 -12
-14 -27z m20 -60 c-53 -83 -67 -103 -71 -103 -3 0 3 12 13 28 53 82 67 102 71
102 3 0 -3 -12 -13 -27z m923 -25 c-3 -7 -5 -2 -5 12 0 14 2 19 5 13 2 -7 2
-19 0 -25z m-82 -115 c-15 -65 -36 -156 -47 -203 -10 -46 -22 -87 -25 -90 -7
-6 0 28 37 185 15 66 34 146 41 178 7 31 14 55 16 53 3 -3 -7 -58 -22 -123z
m270 77 c-9 -41 -17 -33 -9 9 4 17 9 30 11 27 3 -2 2 -19 -2 -36z m-211 -64
c-10 -42 -19 -74 -21 -72 -3 2 3 39 12 81 10 42 19 74 21 72 3 -2 -3 -39 -12
-81z m-603 41 c-10 -9 -11 -8 -5 6 3 10 9 15 12 12 3 -3 0 -11 -7 -18z m-657
-42 c-9 -14 -18 -25 -21 -25 -5 0 5 18 20 38 17 22 18 13 1 -13z m637 2 c-10
-9 -11 -8 -5 6 3 10 9 15 12 12 3 -3 0 -11 -7 -18z m808 -41 c-7 -31 -14 -54
-16 -52 -3 3 1 30 8 60 7 31 14 54 16 52 3 -3 -1 -30 -8 -60z m-876 19 c-3 -9
-8 -14 -10 -11 -3 3 -2 9 2 15 9 16 15 13 8 -4z m-379 -22 c-60 -94 -87 -133
-92 -133 -2 0 4 12 14 28 60 93 87 132 92 132 2 0 -4 -12 -14 -27z m70 15
c-21 -36 -108 -164 -117 -173 -12 -12 9 24 71 118 25 37 47 67 49 67 2 0 1 -6
-3 -12z m357 -11 c-10 -9 -11 -8 -5 6 3 10 9 15 12 12 3 -3 0 -11 -7 -18z
m-657 -22 c-9 -14 -18 -25 -21 -25 -5 0 5 18 20 38 17 22 18 13 1 -13z m589 0
c-3 -9 -8 -14 -10 -11 -3 3 -2 9 2 15 9 16 15 13 8 -4z m48 -18 c-10 -9 -11
-8 -5 6 3 10 9 15 12 12 3 -3 0 -11 -7 -18z m-68 -22 c-3 -9 -8 -14 -10 -11
-3 3 -2 9 2 15 9 16 15 13 8 -4z m687 -86 c-12 -51 -24 -96 -27 -99 -3 -3 -3
6 0 20 3 14 13 60 22 103 10 43 19 76 21 74 3 -2 -5 -46 -16 -98z m-1340 1
c-33 -49 -63 -90 -66 -90 -2 0 23 41 56 90 33 50 63 90 66 90 2 0 -23 -40 -56
-90z m686 31 c-15 -28 -28 -51 -31 -51 -3 0 7 25 22 55 15 30 29 53 31 51 2
-2 -8 -27 -22 -55z m858 10 c-4 -17 -9 -30 -11 -27 -3 2 -2 19 2 36 9 41 17
33 9 -9z m-911 4 c-3 -9 -8 -14 -10 -11 -3 3 -2 9 2 15 9 16 15 13 8 -4z m-20
-40 c-3 -9 -8 -14 -10 -11 -3 3 -2 9 2 15 9 16 15 13 8 -4z m911 -44 c-4 -17
-9 -30 -11 -27 -3 2 -2 19 2 36 9 41 17 33 9 -9z m-931 4 c-3 -9 -8 -14 -10
-11 -3 3 -2 9 2 15 9 16 15 13 8 -4z m48 -18 c-10 -9 -11 -8 -5 6 3 10 9 15
12 12 3 -3 0 -11 -7 -18z m-477 -34 c-60 -94 -87 -133 -92 -133 -2 0 4 12 14
28 60 93 87 132 92 132 2 0 -4 -12 -14 -27z m70 15 c-21 -36 -108 -164 -117
-173 -12 -12 9 24 71 118 25 37 47 67 49 67 2 0 1 -6 -3 -12z m339 -3 c-3 -9
-8 -14 -10 -11 -3 3 -2 9 2 15 9 16 15 13 8 -4z m48 -18 c-10 -9 -11 -8 -5 6
3 10 9 15 12 12 3 -3 0 -11 -7 -18z m883 -26 c-4 -17 -9 -30 -11 -27 -3 2 -2
19 2 36 9 41 17 33 9 -9z m-1584 0 c-5 -11 -15 -23 -21 -27 -6 -3 -3 5 6 20
20 30 30 35 15 7z m633 4 c-3 -9 -8 -14 -10 -11 -3 3 -2 9 2 15 9 16 15 13 8
-4z m48 -18 c-10 -9 -11 -8 -5 6 3 10 9 15 12 12 3 -3 0 -11 -7 -18z m706 -9
c-3 -7 -5 -2 -5 12 0 14 2 19 5 13 2 -7 2 -19 0 -25z m-60 -20 c-3 -7 -5 -2
-5 12 0 14 2 19 5 13 2 -7 2 -19 0 -25z m-714 7 c-3 -9 -8 -14 -10 -11 -3 3
-2 9 2 15 9 16 15 13 8 -4z m-297 -711 c-195 -390 -355 -706 -355 -702 -1 11
703 1418 707 1414 2 -2 -157 -323 -352 -712z m-356 687 c-5 -11 -15 -23 -21
-27 -6 -3 -3 5 6 20 20 30 30 35 15 7z m1400 -77 c-11 -49 -29 -129 -41 -179
-11 -49 -23 -92 -26 -95 -7 -6 0 28 37 185 15 66 31 135 35 153 4 18 9 31 11
29 3 -2 -4 -44 -16 -93z m201 50 c-5 -21 -9 -30 -10 -19 -1 24 10 67 15 62 3
-2 0 -22 -5 -43z m-262 -75 c-32 -142 -37 -157 -38 -133 -1 12 3 34 8 50 6 16
17 64 27 107 9 43 18 76 20 74 3 -2 -5 -47 -17 -98z m238 -31 c-3 -7 -5 -2 -5
12 0 14 2 19 5 13 2 -7 2 -19 0 -25z m-1443 -5 c-60 -94 -87 -133 -92 -133 -2
0 4 12 14 28 60 93 87 132 92 132 2 0 -4 -12 -14 -27z m70 15 c-21 -36 -108
-164 -117 -173 -12 -12 9 24 71 118 25 37 47 67 49 67 2 0 1 -6 -3 -12z m1360
-67 c-4 -17 -9 -30 -11 -27 -3 2 -2 19 2 36 9 41 17 33 9 -9z m-1681 16 c-32
-51 -134 -197 -138 -197 -3 0 26 47 65 105 39 58 73 105 76 105 3 0 1 -6 -3
-13z m1661 -96 c-4 -17 -9 -30 -11 -27 -3 2 -2 19 2 36 9 41 17 33 9 -9z
m-255 -50 c-6 -29 -13 -50 -15 -48 -3 2 1 28 7 56 6 29 13 50 15 48 3 -2 -1
-28 -7 -56z m-1285 -18 c-60 -94 -87 -133 -92 -133 -2 0 4 12 14 28 60 93 87
132 92 132 2 0 -4 -12 -14 -27z m1515 -32 c-6 -29 -13 -50 -15 -48 -3 2 1 28
7 56 6 29 13 50 15 48 3 -2 -1 -28 -7 -56z m-1465 17 c-21 -36 -108 -164 -117
-173 -12 -12 9 24 71 118 25 37 47 67 49 67 2 0 1 -6 -3 -12z m1273 -40 c-3
-7 -5 -2 -5 12 0 14 2 19 5 13 2 -7 2 -19 0 -25z m-1597 -7 c-5 -11 -15 -23
-21 -27 -6 -3 -3 5 6 20 20 30 30 35 15 7z m1537 -13 c-3 -7 -5 -2 -5 12 0 14
2 19 5 13 2 -7 2 -19 0 -25z m32 -99 c-32 -142 -37 -157 -38 -133 -1 12 3 34
8 50 6 16 17 64 27 107 9 43 18 76 20 74 3 -2 -5 -47 -17 -98z m-878 68 c-10
-9 -11 -8 -5 6 3 10 9 15 12 12 3 -3 0 -11 -7 -18z m819 -88 c-12 -51 -24 -96
-27 -99 -3 -3 -3 6 0 20 3 14 13 60 22 103 10 43 19 76 21 74 3 -2 -5 -46 -16
-98z m255 61 c-9 -41 -17 -33 -9 9 4 17 9 30 11 27 3 -2 2 -19 -2 -36z m-1094
-13 c-10 -9 -11 -8 -5 6 3 10 9 15 12 12 3 -3 0 -11 -7 -18z m-20 -40 c-10 -9
-11 -8 -5 6 3 10 9 15 12 12 3 -3 0 -11 -7 -18z m1094 -27 c-9 -41 -17 -33 -9
9 4 17 9 30 11 27 3 -2 2 -19 -2 -36z m-1114 -13 c-10 -9 -11 -8 -5 6 3 10 9
15 12 12 3 -3 0 -11 -7 -18z m-527 -34 c-60 -94 -87 -133 -92 -133 -2 0 4 12
14 28 60 93 87 132 92 132 2 0 -4 -12 -14 -27z m70 15 c-21 -36 -108 -164
-117 -173 -12 -12 9 24 71 118 25 37 47 67 49 67 2 0 1 -6 -3 -12z m437 -21
c-10 -9 -11 -8 -5 6 3 10 9 15 12 12 3 -3 0 -11 -7 -18z m-757 -12 c-9 -14
-18 -25 -21 -25 -5 0 5 18 20 38 17 22 18 13 1 -13z m1865 -39 c-7 -31 -14
-54 -16 -52 -3 3 1 30 8 60 7 31 14 54 16 52 3 -3 -1 -30 -8 -60z m-1128 11
c-10 -9 -11 -8 -5 6 3 10 9 15 12 12 3 -3 0 -11 -7 -18z m864 -124 c-15 -65
-36 -156 -47 -203 -10 -46 -22 -87 -25 -90 -7 -6 0 28 37 185 15 66 34 146 41
178 7 31 14 55 16 53 3 -3 -7 -58 -22 -123z m-1641 92 c-9 -14 -18 -25 -21
-25 -5 0 5 18 20 38 17 22 18 13 1 -13z m297 -931 c-258 -517 -470 -936 -470
-932 -1 11 933 1878 937 1874 2 -2 -208 -426 -467 -942z m1399 840 c-11 -49
-29 -129 -41 -179 -11 -49 -23 -92 -26 -95 -7 -6 0 28 37 185 15 66 31 135 35
153 4 18 9 31 11 29 3 -2 -4 -44 -16 -93z m-1780 -34 c-33 -49 -63 -90 -66
-90 -2 0 23 41 56 90 33 50 63 90 66 90 2 0 -23 -40 -56 -90z m1964 41 c-4
-17 -9 -30 -11 -27 -3 2 -2 19 2 36 9 41 17 33 9 -9z m-1720 -38 c-60 -94 -87
-133 -92 -133 -2 0 4 12 14 28 60 93 87 132 92 132 2 0 -4 -12 -14 -27z m70
15 c-22 -38 -128 -194 -137 -203 -13 -12 10 25 81 133 30 45 57 82 59 82 2 0
1 -6 -3 -12z m1630 -57 c-4 -17 -9 -30 -11 -27 -3 2 -2 19 2 36 9 41 17 33 9
-9z m-20 -80 c-4 -17 -9 -30 -11 -27 -3 2 -2 19 2 36 9 41 17 33 9 -9z m-2004
0 c-5 -11 -15 -23 -21 -27 -6 -3 -3 5 6 20 20 30 30 35 15 7z m-40 -60 c-5
-11 -15 -23 -21 -27 -6 -3 -3 5 6 20 20 30 30 35 15 7z m2021 -27 c-5 -21 -9
-30 -10 -19 -1 24 10 67 15 62 3 -2 0 -22 -5 -43z m-1737 -6 c-21 -36 -108
-164 -117 -173 -12 -12 9 24 71 118 25 37 47 67 49 67 2 0 1 -6 -3 -12z m-324
-27 c-5 -11 -15 -23 -21 -27 -6 -3 -3 5 6 20 20 30 30 35 15 7z m234 -18 c-60
-94 -87 -133 -92 -133 -2 0 4 12 14 28 60 93 87 132 92 132 2 0 -4 -12 -14
-27z m1633 -25 c-3 -7 -5 -2 -5 12 0 14 2 19 5 13 2 -7 2 -19 0 -25z m-60 -20
c-3 -7 -5 -2 -5 12 0 14 2 19 5 13 2 -7 2 -19 0 -25z m230 -10 c-3 -7 -5 -2
-5 12 0 14 2 19 5 13 2 -7 2 -19 0 -25z m-197 -84 c-11 -49 -29 -129 -41 -179
-11 -49 -23 -92 -26 -95 -7 -6 0 28 37 185 15 66 31 135 35 153 4 18 9 31 11
29 3 -2 -4 -44 -16 -93z m-61 -25 c-32 -142 -37 -157 -38 -133 -1 12 3 34 8
50 6 16 17 64 27 107 9 43 18 76 20 74 3 -2 -5 -47 -17 -98z m245 52 c-4 -17
-9 -30 -11 -27 -3 2 -2 19 2 36 9 41 17 33 9 -9z m-2101 16 c-33 -53 -135
-197 -139 -197 -3 0 27 47 66 105 40 58 74 105 76 105 3 0 1 -6 -3 -13z m2081
-96 c-4 -17 -9 -30 -11 -27 -3 2 -2 19 2 36 9 41 17 33 9 -9z m-1900 -8 c-53
-83 -67 -103 -71 -103 -3 0 3 12 13 28 53 82 67 102 71 102 3 0 -3 -12 -13
-27z m70 15 c-22 -38 -128 -194 -137 -203 -13 -12 10 25 81 133 30 45 57 82
59 82 2 0 1 -6 -3 -12z m1805 -107 c-6 -29 -13 -50 -15 -48 -3 2 1 28 7 56 6
29 13 50 15 48 3 -2 -1 -28 -7 -56z m-250 -90 c-6 -29 -13 -50 -15 -48 -3 2 1
28 7 56 6 29 13 50 15 48 3 -2 -1 -28 -7 -56z m-1036 24 c-3 -9 -8 -14 -10
-11 -3 3 -2 9 2 15 9 16 15 13 8 -4z m1262 -35 c-9 -41 -17 -33 -9 9 4 17 9
30 11 27 3 -2 2 -19 -2 -36z m-1302 -45 c-15 -30 -29 -53 -31 -51 -4 5 46 106
53 106 3 0 -7 -25 -22 -55z m-689 23 c-21 -36 -108 -164 -117 -173 -12 -12 9
24 71 118 25 37 47 67 49 67 2 0 1 -6 -3 -12z m60 0 c-22 -38 -128 -194 -137
-203 -13 -12 10 25 81 133 30 45 57 82 59 82 2 0 1 -6 -3 -12z m1743 -40 c-3
-7 -5 -2 -5 12 0 14 2 19 5 13 2 -7 2 -19 0 -25z m170 -10 c-3 -7 -5 -2 -5 12
0 14 2 19 5 13 2 -7 2 -19 0 -25z m-247 -90 c-12 -51 -26 -104 -31 -118 l-9
-25 4 25 c11 65 51 230 54 221 2 -6 -6 -52 -18 -103z m50 -14 c-11 -49 -23
-99 -26 -111 l-6 -23 318 -3 319 -2 -322 -3 c-351 -2 -333 -5 -314 54 6 16 17
64 27 107 9 43 18 76 20 74 3 -2 -4 -44 -16 -93z m2900 46 c-26 -36 -37 -40
-14 -5 l16 25 -1348 3 -1349 2 1358 3 1358 2 -21 -30z m-4027 5 c-3 -9 -8 -14
-10 -11 -3 3 -2 9 2 15 9 16 15 13 8 -4z m-989 -20 c-9 -14 -18 -25 -21 -25
-5 0 5 18 20 38 17 22 18 13 1 -13z m969 -20 c-3 -9 -8 -14 -10 -11 -3 3 -2 9
2 15 9 16 15 13 8 -4z m3997 -35 c-12 -16 -24 -30 -26 -30 -3 0 4 14 16 30 12
17 24 30 26 30 3 0 -4 -13 -16 -30z m-5090 -130 c-55 -82 -103 -150 -105 -150
-3 0 40 68 95 150 55 83 103 150 105 150 3 0 -40 -67 -95 -150z m1073 125 c-3
-9 -8 -14 -10 -11 -3 3 -2 9 2 15 9 16 15 13 8 -4z m-749 -32 c-60 -94 -87
-133 -92 -133 -2 0 4 12 14 28 60 93 87 132 92 132 2 0 -4 -12 -14 -27z m50
-15 c-22 -38 -128 -194 -137 -203 -13 -12 10 25 81 133 30 45 57 82 59 82 2 0
1 -6 -3 -12z m4656 -33 c-17 -25 -33 -45 -36 -45 -3 0 9 20 26 45 17 25 33 45
36 45 3 0 -9 -20 -26 -45z m-2881 -39 c-9 -9 -673 -337 -666 -330 11 12 661
340 666 337 2 -2 2 -5 0 -7z m1324 -3 c-90 -2 -236 -2 -325 0 -90 1 -17 3 162
3 179 0 252 -2 163 -3z m1153 -8 c-11 -8 -25 -15 -30 -15 -6 1 0 7 14 15 32
19 40 18 16 0z m-388 -2 c-97 -2 -259 -2 -360 0 -101 1 -21 2 177 2 198 0 280
-1 183 -2z m-1903 -33 c-99 -3 -187 -9 -195 -13 -8 -5 -6 -1 4 7 17 13 48 16
195 14 l176 -2 -180 -6z m762 -7 c-98 -2 -256 -2 -350 0 -95 1 -14 3 178 2
193 0 270 -1 172 -2z m1550 -4 c-9 -6 -49 -58 -88 -117 -65 -98 -105 -152 -84
-112 22 39 150 226 159 232 6 4 16 8 21 8 6 -1 2 -5 -8 -11z m301 -19 c-22
-30 -35 -41 -22 -17 9 16 36 47 41 47 2 0 -6 -13 -19 -30z m-985 13 c-101 -2
-265 -2 -365 0 -101 1 -19 2 182 2 201 0 283 -1 183 -2z m546 -7 c-2 -2 -24
-13 -49 -25 -25 -12 -36 -15 -26 -6 11 8 25 16 30 17 6 1 -50 5 -124 8 l-135
6 154 2 c85 1 152 0 150 -2z m-5 -96 c-26 -38 -49 -70 -52 -70 -2 0 3 11 12
25 9 14 23 36 32 50 9 14 13 25 10 25 -4 0 -52 -23 -109 -51 -137 -69 -115
-49 31 27 64 34 118 62 120 63 1 0 -19 -30 -44 -69z m-94 45 c0 -3 -58 -34
-130 -70 -71 -36 -130 -63 -130 -60 0 4 245 132 258 134 1 1 2 -1 2 -4z m490
-25 c-12 -16 -24 -30 -26 -30 -3 0 4 14 16 30 12 17 24 30 26 30 3 0 -4 -13
-16 -30z m-4746 -27 c-53 -83 -67 -103 -71 -103 -3 0 3 12 13 28 53 82 67 102
71 102 3 0 -3 -12 -13 -27z m70 15 c-21 -36 -108 -164 -117 -173 -12 -12 9 24
71 118 25 37 47 67 49 67 2 0 1 -6 -3 -12z m1711 -8 c-3 -5 -12 -10 -18 -10
-7 0 -6 4 3 10 19 12 23 12 15 0z m-2055 -19 c-5 -11 -15 -23 -21 -27 -6 -3
-3 5 6 20 20 30 30 35 15 7z m2015 -1 c-3 -5 -12 -10 -18 -10 -7 0 -6 4 3 10
19 12 23 12 15 0z m-40 -20 c-3 -5 -12 -10 -18 -10 -7 0 -6 4 3 10 19 12 23
12 15 0z m-39 -17 c-2 -5 -252 -132 -555 -283 -302 -151 -548 -277 -546 -280
2 -3 -9 -6 -23 -6 -19 -1 1100 571 1126 575 2 1 1 -2 -2 -6z m2988 -60 c-50
-72 -93 -122 -54 -63 42 63 92 130 96 130 3 0 -16 -30 -42 -67z m-4964 38 c-5
-11 -15 -23 -21 -27 -6 -3 -3 5 6 20 20 30 30 35 15 7z m4594 -26 c-9 -14 -18
-25 -21 -25 -5 0 5 18 20 38 17 22 18 13 1 -13z m-184 10 c0 -3 -49 -30 -110
-60 -60 -30 -110 -53 -110 -50 0 4 206 112 218 114 1 1 2 -1 2 -4z m-130 -10
c0 -3 -54 -32 -120 -65 -66 -33 -120 -58 -120 -55 0 4 226 122 238 124 1 1 2
-1 2 -4z m-4056 -40 c-9 -14 -18 -25 -21 -25 -5 0 5 18 20 38 17 22 18 13 1
-13z m797 2 c-10 -9 -11 -8 -5 6 3 10 9 15 12 12 3 -3 0 -11 -7 -18z m3533
-22 c-9 -14 -18 -25 -21 -25 -5 0 5 18 20 38 17 22 18 13 1 -13z m-3553 -18
c-10 -9 -11 -8 -5 6 3 10 9 15 12 12 3 -3 0 -11 -7 -18z m629 9 c0 -2 -7 -7
-16 -10 -8 -3 -12 -2 -9 4 6 10 25 14 25 6z m-1707 -19 c-33 -53 -135 -197
-139 -197 -3 0 27 47 66 105 40 58 74 105 76 105 3 0 1 -6 -3 -13z m261 -14
c-60 -94 -87 -133 -92 -133 -2 0 4 12 14 28 60 93 87 132 92 132 2 0 -4 -12
-14 -27z m1406 13 c0 -2 -7 -7 -16 -10 -8 -3 -12 -2 -9 4 6 10 25 14 25 6z
m-609 -29 c-10 -9 -11 -8 -5 6 3 10 9 15 12 12 3 -3 0 -11 -7 -18z m-747 1
c-22 -38 -128 -194 -137 -203 -13 -12 10 25 81 133 30 45 57 82 59 82 2 0 1
-6 -3 -12z m1316 8 c0 -2 -7 -7 -16 -10 -8 -3 -12 -2 -9 4 6 10 25 14 25 6z
m3340 -10 c0 -2 -8 -10 -17 -17 -16 -13 -17 -12 -4 4 13 16 21 21 21 13z
m-3380 -10 c0 -2 -7 -7 -16 -10 -8 -3 -12 -2 -9 4 6 10 25 14 25 6z m2630 -1
c0 -3 -54 -32 -120 -65 -66 -33 -120 -58 -120 -55 0 4 226 122 238 124 1 1 2
-1 2 -4z m364 -7 c-24 -40 -188 -285 -197 -293 -14 -13 10 25 111 178 47 70
87 127 89 127 2 0 1 -6 -3 -12z m56 -7 c-5 -11 -15 -23 -21 -27 -6 -3 -3 5 6
20 20 30 30 35 15 7z m-3599 -14 c-10 -9 -11 -8 -5 6 3 10 9 15 12 12 3 -3 0
-11 -7 -18z m3049 18 c0 -3 -54 -32 -120 -65 -66 -33 -120 -58 -120 -55 0 4
226 122 238 124 1 1 2 -1 2 -4z m-2540 -9 c0 -2 -7 -7 -16 -10 -8 -3 -12 -2
-9 4 6 10 25 14 25 6z m-529 -49 c-10 -9 -11 -8 -5 6 3 10 9 15 12 12 3 -3 0
-11 -7 -18z m3583 1 c-23 -40 -168 -255 -177 -263 -14 -13 10 25 101 163 41
61 77 112 79 112 2 0 1 -6 -3 -12z m286 -33 c-17 -25 -33 -45 -36 -45 -3 0 9
20 26 45 17 25 33 45 36 45 3 0 -9 -20 -26 -45z m-3889 -8 c-10 -9 -11 -8 -5
6 3 10 9 15 12 12 3 -3 0 -11 -7 -18z m384 3 c-3 -5 -12 -10 -18 -10 -7 0 -6
4 3 10 19 12 23 12 15 0z m-35 -15 c0 -3 -108 -59 -240 -125 -132 -66 -240
-117 -240 -113 1 5 10 24 21 43 19 33 20 28 4 -13 -5 -13 62 17 221 97 252
126 234 118 234 111z m-369 -28 c-10 -9 -11 -8 -5 6 3 10 9 15 12 12 3 -3 0
-11 -7 -18z m2969 8 c0 -3 -49 -30 -110 -60 -60 -30 -110 -53 -110 -50 0 4
206 112 218 114 1 1 2 -1 2 -4z m-130 -10 c0 -3 -54 -32 -120 -65 -66 -33
-120 -58 -120 -55 0 4 226 122 238 124 1 1 2 -1 2 -4z m-3970 -34 c-5 -11 -15
-23 -21 -27 -6 -3 -3 5 6 20 20 30 30 35 15 7z m1111 -4 c-10 -9 -11 -8 -5 6
3 10 9 15 12 12 3 -3 0 -11 -7 -18z m-847 -14 c-60 -94 -87 -133 -92 -133 -2
0 4 12 14 28 60 93 87 132 92 132 2 0 -4 -12 -14 -27z m4694 -13 c-22 -30 -35
-41 -22 -17 9 16 36 47 41 47 2 0 -6 -13 -19 -30z m-4654 -17 c-60 -94 -87
-133 -92 -133 -2 0 4 12 14 28 60 93 87 132 92 132 2 0 -4 -12 -14 -27z m787
4 c-10 -9 -11 -8 -5 6 3 10 9 15 12 12 3 -3 0 -11 -7 -18z m-20 -40 c-10 -9
-11 -8 -5 6 3 10 9 15 12 12 3 -3 0 -11 -7 -18z m3839 -17 c-12 -16 -24 -30
-26 -30 -3 0 4 14 16 30 12 17 24 30 26 30 3 0 -4 -13 -16 -30z m-1080 5 c0
-3 -49 -30 -110 -60 -60 -30 -110 -53 -110 -50 0 4 206 112 218 114 1 1 2 -1
2 -4z m-130 -10 c0 -3 -54 -32 -120 -65 -66 -33 -120 -58 -120 -55 0 4 226
122 238 124 1 1 2 -1 2 -4z m814 -50 c-9 -14 -18 -25 -21 -25 -5 0 5 18 20 38
17 22 18 13 1 -13z m-4360 -30 c-9 -14 -18 -25 -21 -25 -5 0 5 18 20 38 17 22
18 13 1 -13z m4400 0 c-9 -14 -18 -25 -21 -25 -5 0 5 18 20 38 17 22 18 13 1
-13z m275 -30 c-18 -25 -34 -45 -36 -45 -6 0 6 19 35 58 37 49 38 38 1 -13z
m-4629 6 c-5 -11 -15 -23 -21 -27 -6 -3 -3 5 6 20 20 30 30 35 15 7z m704 -34
c-91 -62 -104 -63 -18 -2 27 19 53 35 58 35 4 0 -14 -15 -40 -33z m449 26
c-35 -2 -91 -2 -125 0 -35 2 -7 3 62 3 69 0 97 -1 63 -3z m-1239 -30 c-60 -94
-87 -133 -92 -133 -2 0 4 12 14 28 60 93 87 132 92 132 2 0 -4 -12 -14 -27z
m1524 20 c-38 -2 -98 -2 -135 0 -38 2 -7 3 67 3 74 0 105 -1 68 -3z m314 -10
c-40 -2 -103 -2 -140 0 -37 2 -4 3 73 3 77 0 107 -2 67 -3z m1608 2 c0 -3 -40
-25 -90 -50 -80 -40 -92 -50 -114 -93 -31 -58 -34 -49 -5 11 19 39 32 49 113
90 102 51 96 49 96 42z m-1318 -12 c-40 -2 -103 -2 -140 0 -37 2 -4 3 73 3 77
0 107 -2 67 -3z m1183 -3 c-3 -5 -12 -10 -18 -10 -7 0 -6 4 3 10 19 12 23 12
15 0z m-3611 -25 c-9 -14 -18 -25 -21 -25 -5 0 5 18 20 38 17 22 18 13 1 -13z
m350 13 c-22 -38 -128 -194 -137 -203 -13 -12 10 25 81 133 30 45 57 82 59 82
2 0 1 -6 -3 -12z m854 5 c-10 -2 -26 -2 -35 0 -10 3 -2 5 17 5 19 0 27 -2 18
-5z m1540 0 c-38 -2 -98 -2 -135 0 -38 2 -7 3 67 3 74 0 105 -1 68 -3z m1886
-5 c-25 -42 -248 -375 -257 -383 -15 -14 10 25 141 223 63 94 117 172 119 172
2 0 1 -6 -3 -12z m-3503 -17 c-31 -23 -90 -57 -76 -44 13 14 88 63 95 63 3 0
-6 -9 -19 -19z m302 12 c-34 -2 -93 -2 -130 0 -37 2 -9 3 62 3 72 0 102 -1 68
-3z m1595 0 c-38 -2 -98 -2 -135 0 -38 2 -7 3 67 3 74 0 105 -1 68 -3z m538
-8 c-13 -10 -41 -14 -80 -13 l-61 1 67 6 c36 3 70 9 74 14 4 4 10 7 13 7 3 0
-3 -7 -13 -15z m-1818 -2 c-38 -2 -98 -2 -135 0 -38 2 -7 3 67 3 74 0 105 -1
68 -3z m1595 0 c-34 -2 -93 -2 -130 0 -37 2 -9 3 62 3 72 0 102 -1 68 -3z
m1617 -23 c-12 -16 -24 -30 -26 -30 -3 0 4 14 16 30 12 17 24 30 26 30 3 0 -4
-13 -16 -30z m-2937 13 c-34 -2 -93 -2 -130 0 -37 2 -9 3 62 3 72 0 102 -1 68
-3z m-1013 -7 c0 -3 -31 -24 -155 -101 -16 -10 -25 -14 -20 -8 9 10 166 113
173 113 1 0 2 -2 2 -4z m1328 -3 c-38 -2 -98 -2 -135 0 -38 2 -7 3 67 3 74 0
105 -1 68 -3z m270 -10 c-32 -2 -86 -2 -120 0 -35 2 -9 3 57 3 66 0 94 -1 63
-3z m-2748 -183 c-66 -99 -123 -180 -125 -180 -3 0 49 81 115 180 66 99 123
180 125 180 3 0 -49 -81 -115 -180z m3058 173 c-38 -2 -98 -2 -135 0 -38 2 -7
3 67 3 74 0 105 -1 68 -3z m284 -10 c-40 -2 -103 -2 -140 0 -37 2 -4 3 73 3
77 0 107 -2 67 -3z m-2162 -7 c0 -4 -99 -68 -140 -91 -38 -21 7 13 68 52 70
45 72 45 72 39z m2395 -12 c-89 -47 -126 -64 -122 -57 3 5 29 20 58 33 l53 25
-50 6 c-47 6 -46 6 21 7 69 2 70 2 40 -14z m1475 -24 c-12 -16 -24 -30 -26
-30 -3 0 4 14 16 30 12 17 24 30 26 30 3 0 -4 -13 -16 -30z m-1432 -35 c-12
-24 -24 -43 -26 -41 -2 3 2 14 8 26 17 32 7 34 -39 10 -23 -11 -41 -18 -41
-15 0 4 106 62 117 65 2 0 -7 -20 -19 -45z m1116 -7 c-23 -39 -148 -225 -157
-233 -13 -13 10 25 91 148 36 53 67 97 69 97 2 0 1 -6 -3 -12z m-3789 -14
c-26 -20 -55 -36 -55 -30 0 5 63 46 70 46 3 -1 -4 -8 -15 -16z m4045 -29 c-17
-25 -33 -45 -36 -45 -3 0 9 20 26 45 17 25 33 45 36 45 3 0 -9 -20 -26 -45z
m-1570 30 c0 -3 -27 -18 -60 -35 -33 -17 -60 -28 -60 -25 0 2 26 18 58 34 64
34 62 33 62 26z m90 -10 c0 -3 -31 -21 -70 -40 -38 -19 -70 -33 -70 -30 0 4
126 72 138 75 1 0 2 -2 2 -5z m-3216 -42 c-60 -94 -87 -133 -92 -133 -2 0 4
12 14 28 60 93 87 132 92 132 2 0 -4 -12 -14 -27z m696 23 c0 -4 -99 -68 -140
-91 -38 -21 7 13 68 52 70 45 72 45 72 39z m2636 -53 c-14 -26 -25 -45 -26
-41 0 12 43 98 48 94 2 -2 -8 -26 -22 -53z m-2761 31 c-26 -20 -55 -36 -55
-30 0 5 63 46 70 46 3 -1 -4 -8 -15 -16z m2701 -41 c-14 -26 -25 -45 -26 -41
0 12 43 98 48 94 2 -2 -8 -26 -22 -53z m-3222 25 c-21 -36 -108 -164 -117
-173 -12 -12 9 24 71 118 25 37 47 67 49 67 2 0 1 -6 -3 -12z m2926 -13 c0 -3
-27 -18 -60 -35 -33 -17 -60 -28 -60 -25 0 2 26 18 58 34 64 34 62 33 62 26z
m-2485 -21 c-26 -20 -55 -36 -55 -30 0 5 63 46 70 46 3 -1 -4 -8 -15 -16z
m2575 11 c0 -3 -31 -21 -70 -40 -38 -19 -70 -33 -70 -30 0 4 126 72 138 75 1
0 2 -2 2 -5z m1548 -55 c-22 -30 -35 -41 -22 -17 9 16 36 47 41 47 2 0 -6 -13
-19 -30z m-4078 16 c0 -4 -133 -91 -170 -111 -39 -21 8 14 82 61 86 56 88 57
88 50z m-129 -25 c-31 -23 -90 -57 -76 -44 13 14 88 63 95 63 3 0 -6 -9 -19
-19z m2875 -38 c-14 -26 -25 -45 -26 -41 0 12 43 98 48 94 2 -2 -8 -26 -22
-53z m-456 32 c0 -3 -27 -18 -60 -35 -33 -17 -60 -28 -60 -25 0 2 26 18 58 34
64 34 62 33 62 26z m90 -10 c0 -3 -31 -21 -70 -40 -38 -19 -70 -33 -70 -30 0
4 126 72 138 75 1 0 2 -2 2 -5z m296 -52 c-14 -26 -25 -45 -26 -41 0 12 43 98
48 94 2 -2 -8 -26 -22 -53z m1354 7 c-12 -16 -24 -30 -26 -30 -3 0 4 14 16 30
12 17 24 30 26 30 3 0 -4 -13 -16 -30z m-4676 -5 c-9 -14 -18 -25 -21 -25 -5
0 5 18 20 38 17 22 18 13 1 -13z m407 -4 c-31 -23 -90 -57 -76 -44 13 14 88
63 95 63 3 0 -6 -9 -19 -19z m2379 -16 c0 -3 -27 -18 -60 -35 -33 -17 -60 -28
-60 -25 0 2 26 18 58 34 64 34 62 33 62 26z m1524 -20 c-9 -14 -18 -25 -21
-25 -5 0 5 18 20 38 17 22 18 13 1 -13z m-3869 -1 c-26 -20 -55 -36 -55 -30 0
5 63 46 70 46 3 -1 -4 -8 -15 -16z m2435 11 c0 -3 -31 -21 -70 -40 -38 -19
-70 -33 -70 -30 0 4 126 72 138 75 1 0 2 -2 2 -5z m466 -52 c-14 -26 -25 -45
-26 -41 0 12 43 98 48 94 2 -2 -8 -26 -22 -53z m-3041 11 c-26 -20 -55 -36
-55 -30 0 5 63 46 70 46 3 -1 -4 -8 -15 -16z m2976 -31 c-11 -21 -20 -35 -21
-31 0 12 33 78 38 74 2 -2 -6 -21 -17 -43z m-3337 10 c-53 -83 -67 -103 -71
-103 -3 0 3 12 13 28 53 82 67 102 71 102 3 0 -3 -12 -13 -27z m60 0 c-60 -94
-87 -133 -92 -133 -2 0 4 12 14 28 60 93 87 132 92 132 2 0 -4 -12 -14 -27z
m4595 -18 c-18 -25 -34 -45 -36 -45 -6 0 6 19 35 58 37 49 38 38 1 -13z
m-4229 22 c-18 -17 -98 -64 -87 -51 9 10 89 62 97 63 2 1 -2 -5 -10 -12z
m2270 -12 c0 -3 -27 -18 -60 -35 -33 -17 -60 -28 -60 -25 0 2 26 18 58 34 64
34 62 33 62 26z m-2400 -9 c0 -4 -75 -52 -160 -104 -60 -37 3 11 75 57 83 53
85 54 85 47z m2490 0 c0 -4 -44 -28 -340 -184 -58 -30 -101 -51 -97 -47 7 8
427 234 435 235 1 0 2 -2 2 -4z m1534 -8 c-24 -40 -188 -285 -197 -293 -14
-13 10 25 111 178 47 70 87 127 89 127 2 0 1 -6 -3 -12z m56 -7 c-5 -11 -15
-23 -21 -27 -6 -3 -3 5 6 20 20 30 30 35 15 7z m-4050 -25 c0 -4 -75 -52 -160
-104 -60 -37 3 11 75 57 83 53 85 54 85 47z m-669 -23 c-14 -24 -55 -72 -45
-53 10 20 47 70 51 70 2 0 -1 -8 -6 -17z m3668 -82 c-23 -50 -44 -90 -46 -88
-2 2 16 45 38 96 23 50 44 90 46 88 2 -2 -16 -45 -38 -96z m-48 23 c-16 -33
-30 -56 -31 -52 0 11 53 118 58 114 2 -2 -10 -30 -27 -62z m1063 54 c-23 -40
-168 -255 -177 -263 -14 -13 10 25 101 163 41 61 77 112 79 112 2 0 1 -6 -3
-12z m256 -18 c-12 -16 -24 -30 -26 -30 -3 0 4 14 16 30 12 17 24 30 26 30 3
0 -4 -13 -16 -30z m-2050 15 c0 -3 -27 -18 -60 -35 -33 -17 -60 -28 -60 -25 0
2 26 18 58 34 64 34 62 33 62 26z m-2440 -49 c0 -3 -31 -24 -155 -101 -16 -10
-25 -14 -20 -8 9 10 166 113 173 113 1 0 2 -2 2 -4z m4440 -36 c-12 -16 -24
-30 -26 -30 -3 0 4 14 16 30 12 17 24 30 26 30 3 0 -4 -13 -16 -30z m-4960
-10 c-12 -16 -24 -30 -26 -30 -3 0 4 14 16 30 12 17 24 30 26 30 3 0 -4 -13
-16 -30z m2810 15 c0 -3 -27 -18 -60 -35 -33 -17 -60 -28 -60 -25 0 2 26 18
58 34 64 34 62 33 62 26z m-2526 -32 c-60 -94 -87 -133 -92 -133 -2 0 4 12 14
28 60 93 87 132 92 132 2 0 -4 -12 -14 -27z m251 11 c-26 -20 -55 -36 -55 -30
0 5 63 46 70 46 3 -1 -4 -8 -15 -16z m-205 -33 c-5 -11 -15 -23 -21 -27 -6 -3
-3 5 6 20 20 30 30 35 15 7z m3306 -38 c-14 -26 -25 -45 -26 -41 0 12 43 98
48 94 2 -2 -8 -26 -22 -53z m1254 -13 c-22 -33 -43 -60 -46 -60 -2 0 14 27 36
60 22 33 43 60 46 60 2 0 -14 -27 -36 -60z m-4930 31 c-5 -11 -15 -23 -21 -27
-6 -3 -3 5 6 20 20 30 30 35 15 7z m491 0 c-31 -23 -90 -57 -76 -44 13 14 88
63 95 63 3 0 -6 -9 -19 -19z m2209 -6 c0 -2 -13 -11 -30 -20 -21 -11 -32 -26
-40 -58 -6 -23 -15 -55 -20 -72 -9 -29 -9 -29 -4 5 13 84 25 111 57 130 35 21
37 22 37 15z m90 -10 c0 -6 -97 -55 -107 -55 -4 1 17 14 47 30 61 32 60 32 60
25z m-2458 -27 c-7 -7 -12 -8 -12 -2 0 14 12 26 19 19 2 -3 -1 -11 -7 -17z
m3364 -55 c-14 -26 -25 -45 -26 -41 0 12 43 98 48 94 2 -2 -8 -26 -22 -53z
m-3315 28 c-31 -23 -90 -57 -76 -44 13 14 88 63 95 63 3 0 -6 -9 -19 -19z
m3245 -58 c-14 -26 -25 -45 -26 -41 0 12 43 98 48 94 2 -2 -8 -26 -22 -53z
m-949 15 c-3 -7 -5 -2 -5 12 0 14 2 19 5 13 2 -7 2 -19 0 -25z m1877 -3 c-9
-14 -18 -25 -21 -25 -5 0 5 18 20 38 17 22 18 13 1 -13z m304 -15 c-22 -30
-35 -41 -22 -17 9 16 36 47 41 47 2 0 -6 -13 -19 -30z m-4568 6 c0 -2 -22 -18
-50 -35 -27 -17 -50 -29 -50 -26 0 4 90 64 98 65 1 0 2 -2 2 -4z m-92 -26 c-7
-10 -14 -17 -17 -15 -4 4 18 35 25 35 2 0 -1 -9 -8 -20z m2456 -64 c-10 -42
-19 -74 -21 -72 -3 2 3 39 12 81 10 42 19 74 21 72 3 -2 -3 -39 -12 -81z m965
-55 c-23 -50 -44 -90 -46 -88 -2 2 16 45 38 96 23 50 44 90 46 88 2 -2 -16
-45 -38 -96z m1191 69 c-12 -16 -24 -30 -26 -30 -3 0 4 14 16 30 12 17 24 30
26 30 3 0 -4 -13 -16 -30z m-1234 -37 c-14 -26 -25 -45 -26 -41 0 12 43 98 48
94 2 -2 -8 -26 -22 -53z m-991 -38 c-10 -42 -19 -74 -21 -72 -3 2 3 39 12 81
10 42 19 74 21 72 3 -2 -3 -39 -12 -81z m1899 53 c-25 -42 -248 -375 -257
-383 -15 -14 10 25 141 223 63 94 117 172 119 172 2 0 1 -6 -3 -12z m245 -93
c-18 -25 -34 -45 -36 -45 -6 0 6 19 35 58 37 49 38 38 1 -13z m-2110 -44 c-6
-29 -13 -50 -15 -48 -3 2 1 28 7 56 6 29 13 50 15 48 3 -2 -1 -28 -7 -56z
m-2859 4 c-17 -25 -33 -45 -36 -45 -3 0 9 20 26 45 17 25 33 45 36 45 3 0 -9
-20 -26 -45z m3756 -12 c-14 -26 -25 -45 -26 -41 0 12 43 98 48 94 2 -2 -8
-26 -22 -53z m-971 -78 c-10 -42 -19 -74 -21 -72 -3 2 3 39 12 81 10 42 19 74
21 72 3 -2 -3 -39 -12 -81z m1899 73 c-23 -40 -168 -255 -177 -263 -14 -13 10
25 101 163 41 61 77 112 79 112 2 0 1 -6 -3 -12z m226 -28 c-12 -16 -24 -30
-26 -30 -3 0 4 14 16 30 12 17 24 30 26 30 3 0 -4 -13 -16 -30z m-1134 -47
c-14 -26 -25 -45 -26 -41 0 12 43 98 48 94 2 -2 -8 -26 -22 -53z m-1151 -13
c-9 -41 -17 -33 -9 9 4 17 9 30 11 27 3 -2 2 -19 -2 -36z m212 8 c-3 -7 -5 -2
-5 12 0 14 2 19 5 13 2 -7 2 -19 0 -25z m869 -25 c-8 -15 -15 -25 -16 -21 0
12 23 58 27 54 3 -2 -2 -17 -11 -33z m1154 7 c-12 -16 -24 -30 -26 -30 -3 0 4
14 16 30 12 17 24 30 26 30 3 0 -4 -13 -16 -30z m-2046 -84 c-10 -42 -19 -74
-21 -72 -3 2 3 39 12 81 10 42 19 74 21 72 3 -2 -3 -39 -12 -81z m-215 -5 c-7
-28 -15 -49 -17 -46 -2 2 2 27 9 54 7 28 15 49 17 46 2 -2 -2 -27 -9 -54z
m1127 2 c-14 -26 -25 -45 -26 -41 0 12 43 98 48 94 2 -2 -8 -26 -22 -53z
m1074 2 c-17 -25 -33 -45 -36 -45 -3 0 9 20 26 45 17 25 33 45 36 45 3 0 -9
-20 -26 -45z m-2043 -7 c-3 -7 -5 -2 -5 12 0 14 2 19 5 13 2 -7 2 -19 0 -25z
m899 -25 c-14 -26 -25 -45 -26 -41 0 12 43 98 48 94 2 -2 -8 -26 -22 -53z
m-917 -52 c-6 -29 -13 -50 -15 -48 -3 2 1 28 7 56 6 29 13 50 15 48 3 -2 -1
-28 -7 -56z m937 -28 c-14 -26 -25 -45 -26 -41 0 12 43 98 48 94 2 -2 -8 -26
-22 -53z m-1107 -7 c-6 -26 -13 -45 -16 -43 -2 3 1 26 8 51 6 26 13 45 16 43
2 -3 -1 -26 -8 -51z m1875 29 c-9 -14 -18 -25 -21 -25 -5 0 5 18 20 38 17 22
18 13 1 -13z m-1665 -54 c-6 -29 -13 -50 -15 -48 -3 2 1 28 7 56 6 29 13 50
15 48 3 -2 -1 -28 -7 -56z m1939 29 c-22 -30 -35 -41 -22 -17 9 16 36 47 41
47 2 0 -6 -13 -19 -30z m-1122 -47 c-14 -26 -25 -45 -26 -41 0 12 43 98 48 94
2 -2 -8 -26 -22 -53z m-879 -15 c-3 -7 -5 -2 -5 12 0 14 2 19 5 13 2 -7 2 -19
0 -25z m1737 10 c-25 -41 -228 -345 -237 -353 -15 -14 10 25 131 208 58 86
107 157 109 157 2 0 1 -6 -3 -12z m216 -18 c-12 -16 -24 -30 -26 -30 -3 0 4
14 16 30 12 17 24 30 26 30 3 0 -4 -13 -16 -30z m-2125 -30 c-9 -41 -17 -33
-9 9 4 17 9 30 11 27 3 -2 2 -19 -2 -36z m1071 -27 c-14 -26 -25 -45 -26 -41
0 12 43 98 48 94 2 -2 -8 -26 -22 -53z m758 45 c-24 -41 -208 -315 -217 -323
-14 -14 10 25 121 193 52 78 97 142 99 142 2 0 1 -6 -3 -12z m-1675 -57 c-6
-29 -13 -50 -15 -48 -3 2 1 28 7 56 6 29 13 50 15 48 3 -2 -1 -28 -7 -56z m58
17 c-3 -7 -5 -2 -5 12 0 14 2 19 5 13 2 -7 2 -19 0 -25z m789 -35 c-14 -26
-25 -45 -26 -41 0 12 43 98 48 94 2 -2 -8 -26 -22 -53z m-1031 -58 c-8 -32
-18 -61 -21 -64 -4 -3 -4 3 -1 14 3 11 11 44 18 74 7 29 15 49 16 44 2 -6 -3
-36 -12 -68z m219 -9 c-10 -42 -19 -74 -21 -72 -3 2 3 39 12 81 10 42 19 74
21 72 3 -2 -3 -39 -12 -81z m1855 39 c-18 -25 -34 -45 -36 -45 -6 0 6 19 35
58 37 49 38 38 1 -13z m-1912 -47 c-3 -7 -5 -2 -5 12 0 14 2 19 5 13 2 -7 2
-19 0 -25z m889 -5 c-8 -15 -15 -25 -16 -21 0 12 23 58 27 54 3 -2 -2 -17 -11
-33z m-70 -30 c-14 -26 -25 -45 -26 -41 0 12 43 98 48 94 2 -2 -8 -26 -22 -53z
m1034 -3 c-12 -16 -24 -30 -26 -30 -3 0 4 14 16 30 12 17 24 30 26 30 3 0 -4
-13 -16 -30z m-1871 -39 c-6 -29 -13 -50 -15 -48 -3 2 1 28 7 56 6 29 13 50
15 48 3 -2 -1 -28 -7 -56z m-174 -21 c-9 -41 -17 -33 -9 9 4 17 9 30 11 27 3
-2 2 -19 -2 -36z m1031 -17 c-14 -26 -25 -45 -26 -41 0 12 43 98 48 94 2 -2
-8 -26 -22 -53z m-826 -59 c-31 -139 -58 -240 -59 -226 -1 7 12 67 28 135 16
67 32 137 36 155 4 18 9 31 11 29 3 -2 -4 -44 -16 -93z m1790 66 c-12 -16 -24
-30 -26 -30 -3 0 4 14 16 30 12 17 24 30 26 30 3 0 -4 -13 -16 -30z m-1061
-99 c-23 -50 -44 -90 -46 -88 -2 2 16 45 38 96 23 50 44 90 46 88 2 -2 -16
-45 -38 -96z m-960 10 c-7 -28 -15 -49 -17 -46 -2 2 2 27 9 54 7 28 15 49 17
46 2 -2 -2 -27 -9 -54z m178 27 c-3 -7 -5 -2 -5 12 0 14 2 19 5 13 2 -7 2 -19
0 -25z m1793 -8 c-12 -16 -24 -30 -26 -30 -3 0 4 14 16 30 12 17 24 30 26 30
3 0 -4 -13 -16 -30z m-1803 -32 c-3 -8 -6 -5 -6 6 -1 11 2 17 5 13 3 -3 4 -12
1 -19z m829 -35 c-14 -26 -25 -45 -26 -41 0 12 43 98 48 94 2 -2 -8 -26 -22
-53z m-841 -23 c-9 -41 -17 -33 -9 9 4 17 9 30 11 27 3 -2 2 -19 -2 -36z
m1485 1 c-5 -11 -15 -23 -21 -27 -6 -3 -3 5 6 20 20 30 30 35 15 7z m249 -26
c-18 -25 -34 -45 -36 -45 -6 0 6 19 35 58 37 49 38 38 1 -13z m-1915 -4 c-4
-17 -9 -30 -11 -27 -3 2 -2 19 2 36 9 41 17 33 9 -9z m972 -58 c-14 -26 -25
-45 -26 -41 0 12 43 98 48 94 2 -2 -8 -26 -22 -53z m-809 15 c-3 -7 -5 -2 -5
12 0 14 2 19 5 13 2 -7 2 -19 0 -25z m1467 20 c-24 -41 -208 -315 -217 -323
-14 -14 10 25 121 193 52 78 97 142 99 142 2 0 1 -6 -3 -12z m-728 -65 c-14
-26 -25 -45 -26 -41 0 12 43 98 48 94 2 -2 -8 -26 -22 -53z m-927 -7 c-6 -26
-13 -45 -16 -43 -2 3 1 26 8 51 6 26 13 45 16 43 2 -3 -1 -26 -8 -51z m1881
14 c-12 -16 -24 -30 -26 -30 -3 0 4 14 16 30 12 17 24 30 26 30 3 0 -4 -13
-16 -30z m-1716 -64 c-10 -42 -19 -74 -21 -72 -3 2 3 39 12 81 10 42 19 74 21
72 3 -2 -3 -39 -12 -81z m1490 32 c-23 -40 -168 -255 -177 -263 -14 -13 10 25
101 163 41 61 77 112 79 112 2 0 1 -6 -3 -12z m-708 -55 c-14 -26 -25 -45 -26
-41 0 12 43 98 48 94 2 -2 -8 -26 -22 -53z m-746 -49 c-31 -139 -58 -240 -59
-226 -1 7 12 67 28 135 16 67 32 137 36 155 4 18 9 31 11 29 3 -2 -4 -44 -16
-93z m676 19 c-14 -26 -25 -45 -26 -41 0 12 43 98 48 94 2 -2 -8 -26 -22 -53z
m-901 7 c-9 -41 -17 -33 -9 9 4 17 9 30 11 27 3 -2 2 -19 -2 -36z m1824 -5
c-18 -25 -34 -45 -36 -45 -6 0 6 19 35 58 37 49 38 38 1 -13z m-1849 -82 c-11
-17 -11 -17 -6 0 3 10 7 26 7 35 1 15 2 15 6 0 2 -10 -1 -25 -7 -35z m187 25
c-3 -8 -6 -5 -6 6 -1 11 2 17 5 13 3 -3 4 -12 1 -19z m747 -51 c-27 -60 -44
-80 -20 -24 26 61 39 87 43 84 2 -2 -8 -29 -23 -60z m-58 -4 c-14 -26 -25 -45
-26 -41 0 12 43 98 48 94 2 -2 -8 -26 -22 -53z m914 27 c-12 -16 -24 -30 -26
-30 -3 0 4 14 16 30 12 17 24 30 26 30 3 0 -4 -13 -16 -30z m-1621 -54 c-7
-31 -14 -54 -16 -52 -3 3 1 30 8 60 7 31 14 54 16 52 3 -3 -1 -30 -8 -60z
m-184 -6 c-9 -41 -17 -33 -9 9 4 17 9 30 11 27 3 -2 2 -19 -2 -36z m1755 -10
c-12 -16 -24 -30 -26 -30 -3 0 4 14 16 30 12 17 24 30 26 30 3 0 -4 -13 -16
-30z m-854 -57 c-8 -15 -15 -25 -16 -21 0 12 23 58 27 54 3 -2 -2 -17 -11 -33z
m-921 -13 c-9 -41 -17 -33 -9 9 4 17 9 30 11 27 3 -2 2 -19 -2 -36z m851 -17
c-14 -26 -25 -45 -26 -41 0 12 43 98 48 94 2 -2 -8 -26 -22 -53z m874 17 c-12
-16 -24 -30 -26 -30 -3 0 4 14 16 30 12 17 24 30 26 30 3 0 -4 -13 -16 -30z
m-1556 -64 c-10 -42 -19 -74 -21 -72 -3 2 3 39 12 81 10 42 19 74 21 72 3 -2
-3 -39 -12 -81z m1340 22 c-25 -42 -248 -375 -257 -383 -15 -14 10 25 141 223
63 94 117 172 119 172 2 0 1 -6 -3 -12z m-1527 -20 c-3 -8 -6 -5 -6 6 -1 11 2
17 5 13 3 -3 4 -12 1 -19z m240 0 c-3 -8 -6 -5 -6 6 -1 11 2 17 5 13 3 -3 4
-12 1 -19z m649 -35 c-14 -26 -25 -45 -26 -41 0 12 43 98 48 94 2 -2 -8 -26
-22 -53z m558 25 c-24 -41 -208 -315 -217 -323 -14 -14 10 25 121 193 52 78
97 142 99 142 2 0 1 -6 -3 -12z m-623 -45 c-11 -21 -20 -35 -21 -31 0 12 33
78 38 74 2 -2 -6 -21 -17 -43z m839 2 c-17 -25 -33 -45 -36 -45 -7 0 3 17 34
58 36 48 38 39 2 -13z m-1676 -4 c-4 -17 -9 -30 -11 -27 -3 2 -2 19 2 36 9 41
17 33 9 -9z m231 -46 c-10 -42 -19 -74 -21 -72 -3 2 3 39 12 81 10 42 19 74
21 72 3 -2 -3 -39 -12 -81z m-58 -7 c-3 -8 -6 -5 -6 6 -1 11 2 17 5 13 3 -3 4
-12 1 -19z m-198 -42 c-6 -26 -13 -45 -16 -43 -2 3 1 26 8 51 6 26 13 45 16
43 2 -3 -1 -26 -8 -51z m850 -55 c-23 -50 -44 -90 -46 -88 -2 2 16 45 38 96
23 50 44 90 46 88 2 -2 -16 -45 -38 -96z m791 69 c-12 -16 -24 -30 -26 -30 -3
0 4 14 16 30 12 17 24 30 26 30 3 0 -4 -13 -16 -30z m-834 -37 c-14 -26 -25
-45 -26 -41 0 12 43 98 48 94 2 -2 -8 -26 -22 -53z m-627 -17 c-7 -31 -14 -54
-16 -52 -3 3 1 30 8 60 7 31 14 54 16 52 3 -3 -1 -30 -8 -60z m40 -60 c-7 -31
-14 -54 -16 -52 -3 3 1 30 8 60 7 31 14 54 16 52 3 -3 -1 -30 -8 -60z m-244 4
c-9 -41 -17 -33 -9 9 4 17 9 30 11 27 3 -2 2 -19 -2 -36z m1584 -5 c-18 -25
-34 -45 -36 -45 -6 0 6 19 35 58 37 49 38 38 1 -13z m-813 -52 c-14 -26 -25
-45 -26 -41 0 12 43 98 48 94 2 -2 -8 -26 -22 -53z m-595 1 c-5 -21 -9 -30
-10 -19 -1 24 10 67 15 62 3 -2 0 -22 -5 -43z m-201 -31 c-11 -17 -11 -17 -6
0 3 10 7 26 7 35 1 15 2 15 6 0 2 -10 -1 -25 -7 -35z m1550 -3 c-12 -16 -24
-30 -26 -30 -3 0 4 14 16 30 12 17 24 30 26 30 3 0 -4 -13 -16 -30z m-1303 -2
c-3 -8 -6 -5 -6 6 -1 11 2 17 5 13 3 -3 4 -12 1 -19z m569 -45 c-14 -26 -25
-45 -26 -41 0 12 43 98 48 94 2 -2 -8 -26 -22 -53z m-632 -2 c-4 -17 -9 -30
-11 -27 -3 2 -2 19 2 36 9 41 17 33 9 -9z m-199 -11 c-9 -41 -17 -33 -9 9 4
17 9 30 11 27 3 -2 2 -19 -2 -36z m240 -45 c-10 -42 -19 -74 -21 -72 -3 2 3
39 12 81 10 42 19 74 21 72 3 -2 -3 -39 -12 -81z m526 38 c-11 -21 -20 -35
-21 -31 0 12 33 78 38 74 2 -2 -6 -21 -17 -43z m749 -3 c-12 -16 -24 -30 -26
-30 -3 0 4 14 16 30 12 17 24 30 26 30 3 0 -4 -13 -16 -30z m-236 -12 c-25
-41 -228 -345 -237 -353 -15 -14 10 25 131 208 58 86 107 157 109 157 2 0 1
-6 -3 -12z m-1097 -30 c-3 -8 -6 -5 -6 6 -1 11 2 17 5 13 3 -3 4 -12 1 -19z
m-202 -28 c-9 -41 -17 -33 -9 9 4 17 9 30 11 27 3 -2 2 -19 -2 -36z m1485 0
c-12 -16 -24 -30 -26 -30 -3 0 4 14 16 30 12 17 24 30 26 30 3 0 -4 -13 -16
-30z m-689 -27 c-11 -21 -20 -35 -21 -31 0 12 33 78 38 74 2 -2 -6 -21 -17
-43z m-616 -48 c-10 -42 -19 -74 -21 -72 -3 2 3 39 12 81 10 42 19 74 21 72 3
-2 -3 -39 -12 -81z m551 28 c-14 -26 -25 -45 -26 -41 0 12 43 98 48 94 2 -2
-8 -26 -22 -53z m564 8 c-5 -11 -15 -23 -21 -27 -6 -3 -3 5 6 20 20 30 30 35
15 7z m-1321 -60 c-7 -28 -15 -49 -17 -46 -2 2 2 27 9 54 7 28 15 49 17 46 2
-2 -2 -27 -9 -54z m250 -15 c-7 -31 -14 -54 -16 -52 -3 3 1 30 8 60 7 31 14
54 16 52 3 -3 -1 -30 -8 -60z m527 -13 c-14 -26 -25 -45 -26 -41 0 12 43 98
48 94 2 -2 -8 -26 -22 -53z m654 12 c-17 -25 -33 -45 -36 -45 -3 0 9 20 26 45
17 25 33 45 36 45 3 0 -9 -20 -26 -45z m-146 23 c-23 -39 -148 -225 -157 -233
-13 -13 10 25 91 148 36 53 67 97 69 97 2 0 1 -6 -3 -12z m-605 -127 c-23 -50
-44 -90 -46 -88 -2 2 16 45 38 96 23 50 44 90 46 88 2 -2 -16 -45 -38 -96z
m-710 5 c-6 -26 -13 -45 -16 -43 -2 3 1 26 8 51 6 26 13 45 16 43 2 -3 -1 -26
-8 -51z m208 22 c-3 -7 -5 -2 -5 12 0 14 2 19 5 13 2 -7 2 -19 0 -25z m1193
-8 c-12 -16 -24 -30 -26 -30 -3 0 4 14 16 30 12 17 24 30 26 30 3 0 -4 -13
-16 -30z m-1143 -2 c-3 -8 -6 -5 -6 6 -1 11 2 17 5 13 3 -3 4 -12 1 -19z m489
-55 c-14 -26 -25 -45 -26 -41 0 12 43 98 48 94 2 -2 -8 -26 -22 -53z m-557
-12 c-6 -29 -13 -50 -15 -48 -3 2 1 28 7 56 6 29 13 50 15 48 3 -2 -1 -28 -7
-56z m46 -36 c-10 -42 -19 -74 -21 -72 -3 2 3 39 12 81 10 42 19 74 21 72 3
-2 -3 -39 -12 -81z m-260 -5 c-9 -41 -17 -33 -9 9 4 17 9 30 11 27 3 -2 2 -19
-2 -36z m1344 -5 c-18 -25 -34 -45 -36 -45 -6 0 6 19 35 58 37 49 38 38 1 -13z
m-618 -42 c-11 -21 -20 -35 -21 -31 0 12 33 78 38 74 2 -2 -6 -21 -17 -43z
m-546 -58 c-10 -42 -19 -74 -21 -72 -3 2 3 39 12 81 10 42 19 74 21 72 3 -2
-3 -39 -12 -81z m471 18 c-14 -26 -25 -45 -26 -41 0 12 43 98 48 94 2 -2 -8
-26 -22 -53z m-671 7 c-9 -41 -17 -33 -9 9 4 17 9 30 11 27 3 -2 2 -19 -2 -36z
m1305 -10 c-12 -16 -24 -30 -26 -30 -3 0 4 14 16 30 12 17 24 30 26 30 3 0 -4
-13 -16 -30z m-1053 -22 c-3 -7 -5 -2 -5 12 0 14 2 19 5 13 2 -7 2 -19 0 -25z
m439 -55 c-14 -26 -25 -45 -26 -41 0 12 43 98 48 94 2 -2 -8 -26 -22 -53z
m-716 0 c-11 -17 -11 -17 -6 0 3 10 7 26 7 35 1 15 2 15 6 0 2 -10 -1 -25 -7
-35z m1094 35 c-25 -42 -248 -375 -257 -383 -15 -14 10 25 141 223 63 94 117
172 119 172 2 0 1 -6 -3 -12z m60 0 c-25 -42 -248 -375 -257 -383 -15 -14 10
25 141 223 63 94 117 172 119 172 2 0 1 -6 -3 -12z m-895 -57 c-6 -29 -13 -50
-15 -48 -3 2 1 28 7 56 6 29 13 50 15 48 3 -2 -1 -28 -7 -56z m1021 29 c-12
-16 -24 -30 -26 -30 -3 0 4 14 16 30 12 17 24 30 26 30 3 0 -4 -13 -16 -30z
m-634 -37 c-8 -15 -15 -25 -16 -21 0 12 23 58 27 54 3 -2 -2 -17 -11 -33z
m-661 -33 c-9 -41 -17 -33 -9 9 4 17 9 30 11 27 3 -2 2 -19 -2 -36z m212 8
c-3 -7 -5 -2 -5 12 0 14 2 19 5 13 2 -7 2 -19 0 -25z m1023 -23 c-17 -25 -33
-45 -36 -45 -3 0 9 20 26 45 17 25 33 45 36 45 3 0 -9 -20 -26 -45z m-559 -41
c-16 -33 -30 -56 -31 -52 0 11 53 118 58 114 2 -2 -10 -30 -27 -62z m-45 23
c-17 -42 -45 -94 -46 -86 0 10 51 119 56 119 2 0 -2 -15 -10 -33z m-437 -36
c-6 -29 -13 -50 -15 -48 -3 2 1 28 7 56 6 29 13 50 15 48 3 -2 -1 -28 -7 -56z
m58 17 c-3 -7 -5 -2 -5 12 0 14 2 19 5 13 2 -7 2 -19 0 -25z m-272 -28 c-9
-41 -17 -33 -9 9 4 17 9 30 11 27 3 -2 2 -19 -2 -36z m249 -74 c-10 -42 -19
-74 -21 -72 -3 2 3 39 12 81 10 42 19 74 21 72 3 -2 -3 -39 -12 -81z m936 39
c-17 -25 -33 -45 -36 -45 -3 0 9 20 26 45 17 25 33 45 36 45 3 0 -9 -20 -26
-45z m-1203 -27 c-3 -8 -6 -5 -6 6 -1 11 2 17 5 13 3 -3 4 -12 1 -19z m659
-35 c-14 -26 -25 -45 -26 -41 0 12 43 98 48 94 2 -2 -8 -26 -22 -53z m-461
-38 c-10 -42 -19 -74 -21 -72 -3 2 3 39 12 81 10 42 19 74 21 72 3 -2 -3 -39
-12 -81z m391 8 c-14 -26 -25 -45 -26 -41 0 12 43 98 48 94 2 -2 -8 -26 -22
-53z m-602 8 c-4 -17 -9 -30 -11 -27 -3 2 -2 19 2 36 9 41 17 33 9 -9z m1156
-1 c-12 -16 -24 -30 -26 -30 -3 0 4 14 16 30 12 17 24 30 26 30 3 0 -4 -13
-16 -30z m-534 -87 c-14 -26 -25 -45 -26 -41 0 12 43 98 48 94 2 -2 -8 -26
-22 -53z m-377 -12 c-6 -29 -13 -50 -15 -48 -3 2 1 28 7 56 6 29 13 50 15 48
3 -2 -1 -28 -7 -56z m307 -18 c-14 -26 -25 -45 -26 -41 0 12 43 98 48 94 2 -2
-8 -26 -22 -53z m-581 7 c-9 -41 -17 -33 -9 9 4 17 9 30 11 27 3 -2 2 -19 -2
-36z m1104 -5 c-18 -25 -34 -45 -36 -45 -6 0 6 19 35 58 37 49 38 38 1 -13z
m-892 -17 c-3 -7 -5 -2 -5 12 0 14 2 19 5 13 2 -7 2 -19 0 -25z m-232 -58 c-9
-41 -17 -33 -9 9 4 17 9 30 11 27 3 -2 2 -19 -2 -36z m222 18 c-3 -8 -6 -5 -6
6 -1 11 2 17 5 13 3 -3 4 -12 1 -19z m50 -20 c-3 -7 -5 -2 -5 12 0 14 2 19 5
13 2 -7 2 -19 0 -25z m322 -67 c-23 -50 -44 -90 -46 -88 -2 2 16 45 38 96 23
50 44 90 46 88 2 -2 -16 -45 -38 -96z m305 87 c-23 -40 -168 -255 -177 -263
-14 -13 10 25 101 163 41 61 77 112 79 112 2 0 1 -6 -3 -12z m-348 -55 c-14
-26 -25 -45 -26 -41 0 12 43 98 48 94 2 -2 -8 -26 -22 -53z m514 27 c-12 -16
-24 -30 -26 -30 -3 0 4 14 16 30 12 17 24 30 26 30 3 0 -4 -13 -16 -30z m-855
-30 c-9 -41 -17 -33 -9 9 4 17 9 30 11 27 3 -2 2 -19 -2 -36z m39 -64 c-10
-42 -19 -74 -21 -72 -3 2 3 39 12 81 10 42 19 74 21 72 3 -2 -3 -39 -12 -81z
m670 62 c-24 -40 -188 -285 -197 -293 -14 -13 10 25 111 178 47 70 87 127 89
127 2 0 1 -6 -3 -12z m-944 -45 c-11 -17 -11 -17 -6 0 3 10 7 26 7 35 1 15 2
15 6 0 2 -10 -1 -25 -7 -35z m1040 7 c-12 -16 -24 -30 -26 -30 -3 0 4 14 16
30 12 17 24 30 26 30 3 0 -4 -13 -16 -30z m-823 -32 c-3 -7 -5 -2 -5 12 0 14
2 19 5 13 2 -7 2 -19 0 -25z m299 -55 c-14 -26 -25 -45 -26 -41 0 12 43 98 48
94 2 -2 -8 -26 -22 -53z m-532 13 c-3 -15 -8 -25 -11 -23 -2 3 -1 17 3 31 3
15 8 25 11 23 2 -3 1 -17 -3 -31z m1010 9 c-9 -14 -18 -25 -21 -25 -5 0 5 18
20 38 17 22 18 13 1 -13z m-795 -44 c-6 -29 -13 -50 -15 -48 -3 2 1 28 7 56 6
29 13 50 15 48 3 -2 -1 -28 -7 -56z m771 5 c0 -2 -8 -10 -17 -17 -16 -13 -17
-12 -4 4 13 16 21 21 21 13z m-1005 -46 c-9 -41 -17 -33 -9 9 4 17 9 30 11 27
3 -2 2 -19 -2 -36z m274 -19 c-6 -29 -13 -50 -15 -48 -3 2 1 28 7 56 6 29 13
50 15 48 3 -2 -1 -28 -7 -56z m297 2 c-14 -26 -25 -45 -26 -41 0 12 43 98 48
94 2 -2 -8 -26 -22 -53z m374 -18 c-17 -25 -33 -45 -36 -45 -3 0 9 20 26 45
17 25 33 45 36 45 3 0 -9 -20 -26 -45z m-444 -12 c-8 -15 -15 -25 -16 -21 0
12 23 58 27 54 3 -2 -2 -17 -11 -33z m-289 -5 c-3 -7 -5 -2 -5 12 0 14 2 19 5
13 2 -7 2 -19 0 -25z m-230 -10 c-3 -8 -6 -5 -6 6 -1 11 2 17 5 13 3 -3 4 -12
1 -19z m220 -30 c-3 -8 -6 -5 -6 6 -1 11 2 17 5 13 3 -3 4 -12 1 -19z m319
-35 c-14 -26 -25 -45 -26 -41 0 12 43 98 48 94 2 -2 -8 -26 -22 -53z m-549 25
c-3 -8 -6 -5 -6 6 -1 11 2 17 5 13 3 -3 4 -12 1 -19z m280 -10 c-3 -7 -5 -2
-5 12 0 14 2 19 5 13 2 -7 2 -19 0 -25z m219 -1 c-17 -42 -45 -94 -46 -86 0
10 51 119 56 119 2 0 -2 -15 -10 -33z m414 -7 c-12 -16 -24 -30 -26 -30 -3 0
4 14 16 30 12 17 24 30 26 30 3 0 -4 -13 -16 -30z m-695 -30 c-9 -41 -17 -33
-9 9 4 17 9 30 11 27 3 -2 2 -19 -2 -36z m-228 8 c-3 -8 -6 -5 -6 6 -1 11 2
17 5 13 3 -3 4 -12 1 -19z m797 -3 c-9 -14 -18 -25 -21 -25 -5 0 5 18 20 38
17 22 18 13 1 -13z m-530 -69 c-10 -42 -19 -74 -21 -72 -3 2 3 39 12 81 10 42
19 74 21 72 3 -2 -3 -39 -12 -81z m-285 0 c-6 -26 -13 -45 -16 -43 -2 3 1 26
8 51 6 26 13 45 16 43 2 -3 -1 -26 -8 -51z m527 -23 c-14 -26 -25 -45 -26 -41
0 12 43 98 48 94 2 -2 -8 -26 -22 -53z m-299 15 c-3 -7 -5 -2 -5 12 0 14 2 19
5 13 2 -7 2 -19 0 -25z m632 -13 c-18 -25 -34 -45 -36 -45 -6 0 6 19 35 58 37
49 38 38 1 -13z m-155 13 c-23 -40 -168 -255 -177 -263 -14 -13 10 25 101 163
41 61 77 112 79 112 2 0 1 -6 -3 -12z m60 0 c-25 -41 -228 -345 -237 -353 -15
-14 10 25 131 208 58 86 107 157 109 157 2 0 1 -6 -3 -12z m-318 -65 c-14 -26
-25 -45 -26 -41 0 12 43 98 48 94 2 -2 -8 -26 -22 -53z m-242 -37 c-10 -42
-19 -74 -21 -72 -3 2 3 39 12 81 10 42 19 74 21 72 3 -2 -3 -39 -12 -81z
m-229 14 c-9 -41 -17 -33 -9 9 4 17 9 30 11 27 3 -2 2 -19 -2 -36z m825 -10
c-12 -16 -24 -30 -26 -30 -3 0 4 14 16 30 12 17 24 30 26 30 3 0 -4 -13 -16
-30z m-543 -2 c-3 -8 -6 -5 -6 6 -1 11 2 17 5 13 3 -3 4 -12 1 -19z m209 -45
c-14 -26 -25 -45 -26 -41 0 12 43 98 48 94 2 -2 -8 -26 -22 -53z m-247 -122
c-18 -77 -35 -139 -37 -136 -2 2 11 67 29 144 18 77 35 139 37 136 2 -2 -11
-67 -29 -144z m177 92 c-14 -26 -25 -45 -26 -41 0 12 43 98 48 94 2 -2 -8 -26
-22 -53z m-446 0 c-11 -17 -11 -17 -6 0 3 10 7 26 7 35 1 15 2 15 6 0 2 -10
-1 -25 -7 -35z m800 7 c-12 -16 -24 -30 -26 -30 -3 0 4 14 16 30 12 17 24 30
26 30 3 0 -4 -13 -16 -30z m-573 -42 c-3 -8 -6 -5 -6 6 -1 11 2 17 5 13 3 -3
4 -12 1 -19z m-243 -32 c-3 -15 -8 -25 -11 -23 -2 3 -1 17 3 31 3 15 8 25 11
23 2 -3 1 -17 -3 -31z m770 9 c-9 -14 -18 -25 -21 -25 -5 0 5 18 20 38 17 22
18 13 1 -13z m-293 -32 c-11 -21 -20 -35 -21 -31 0 12 33 78 38 74 2 -2 -6
-21 -17 -43z m-246 -3 c-9 -41 -17 -33 -9 9 4 17 9 30 11 27 3 -2 2 -19 -2
-36z m181 -17 c-14 -26 -25 -45 -26 -41 0 12 43 98 48 94 2 -2 -8 -26 -22 -53z
m334 13 c0 -2 -8 -10 -17 -17 -16 -13 -17 -12 -4 4 13 16 21 21 21 13z m-176
-31 c-9 -14 -18 -25 -21 -25 -5 0 5 18 20 38 17 22 18 13 1 -13z m-590 -19
c-3 -15 -8 -25 -11 -23 -2 3 -1 17 3 31 3 15 8 25 11 23 2 -3 1 -17 -3 -31z
m233 -18 c-3 -7 -5 -2 -5 12 0 14 2 19 5 13 2 -7 2 -19 0 -25z m219 -25 c-14
-26 -25 -45 -26 -41 0 12 43 98 48 94 2 -2 -8 -26 -22 -53z m254 12 c-17 -25
-33 -45 -36 -45 -3 0 9 20 26 45 17 25 33 45 36 45 3 0 -9 -20 -26 -45z m-156
-10 c-9 -14 -18 -25 -21 -25 -5 0 5 18 20 38 17 22 18 13 1 -13z m-569 -35
c-9 -41 -17 -33 -9 9 4 17 9 30 11 27 3 -2 2 -19 -2 -36z m229 -44 c-10 -42
-19 -74 -21 -72 -3 2 3 39 12 81 10 42 19 74 21 72 3 -2 -3 -39 -12 -81z m167
37 c-11 -21 -20 -35 -21 -31 0 12 33 78 38 74 2 -2 -6 -21 -17 -43z m213 12
c-9 -14 -18 -25 -21 -25 -5 0 5 18 20 38 17 22 18 13 1 -13z m56 -45 c-12 -16
-24 -30 -26 -30 -3 0 4 14 16 30 12 17 24 30 26 30 3 0 -4 -13 -16 -30z m-383
-2 c-3 -8 -6 -5 -6 6 -1 11 2 17 5 13 3 -3 4 -12 1 -19z m293 -7 c-5 -11 -15
-23 -21 -27 -6 -3 -3 5 6 20 20 30 30 35 15 7z m-593 -13 c-3 -8 -6 -5 -6 6
-1 11 2 17 5 13 3 -3 4 -12 1 -19z m429 -35 c-14 -26 -25 -45 -26 -41 0 12 43
98 48 94 2 -2 -8 -26 -22 -53z m-60 -10 c-14 -26 -25 -45 -26 -41 0 12 43 98
48 94 2 -2 -8 -26 -22 -53z m-91 -38 c-10 -42 -19 -74 -21 -72 -3 2 3 39 12
81 10 42 19 74 21 72 3 -2 -3 -39 -12 -81z m239 73 c-23 -40 -168 -255 -177
-263 -14 -13 10 25 101 163 41 61 77 112 79 112 2 0 1 -6 -3 -12z m-527 -30
c-3 -8 -6 -5 -6 6 -1 11 2 17 5 13 3 -3 4 -12 1 -19z m567 0 c-24 -41 -208
-315 -217 -323 -14 -14 10 25 121 193 52 78 97 142 99 142 2 0 1 -6 -3 -12z
m56 -38 c-12 -16 -24 -30 -26 -30 -3 0 4 14 16 30 12 17 24 30 26 30 3 0 -4
-13 -16 -30z m-636 -14 c-3 -15 -8 -25 -11 -23 -2 3 -1 17 3 31 3 15 8 25 11
23 2 -3 1 -17 -3 -31z m243 2 c-3 -8 -6 -5 -6 6 -1 11 2 17 5 13 3 -3 4 -12 1
-19z m164 -45 c-11 -21 -20 -35 -21 -31 0 12 33 78 38 74 2 -2 -6 -21 -17 -43z
m-195 -93 c-14 -52 -25 -89 -25 -81 -1 23 44 207 46 190 2 -7 -8 -57 -21 -109z
m120 53 c-14 -26 -25 -45 -26 -41 0 12 43 98 48 94 2 -2 -8 -26 -22 -53z
m-351 7 c-9 -41 -17 -33 -9 9 4 17 9 30 11 27 3 -2 2 -19 -2 -36z m572 -27
c-18 -27 -55 -78 -81 -115 -26 -38 -50 -68 -53 -68 -3 0 -1 6 4 13 6 6 42 58
82 115 39 56 74 102 77 102 3 0 -10 -21 -29 -47z m-288 -37 c-7 -31 -14 -54
-16 -52 -3 3 1 30 8 60 7 31 14 54 16 52 3 -3 -1 -30 -8 -60z m92 -15 c-24
-46 -26 -55 -9 -45 7 5 8 3 3 -5 -4 -8 -11 -9 -17 -3 -6 6 -1 26 13 55 13 26
24 45 27 43 2 -2 -6 -22 -17 -45z m-401 -8 c-11 -17 -11 -17 -6 0 3 10 7 26 7
35 1 15 2 15 6 0 2 -10 -1 -25 -7 -35z m326 -30 c-14 -26 -25 -45 -26 -41 0
12 43 98 48 94 2 -2 -8 -26 -22 -53z m-346 -50 c-11 -17 -11 -17 -6 0 3 10 7
26 7 35 1 15 2 15 6 0 2 -10 -1 -25 -7 -35z m307 15 c-3 -8 -6 -5 -6 6 -1 11
2 17 5 13 3 -3 4 -12 1 -19z m61 -48 c-17 -28 -33 -50 -34 -50 -2 0 6 20 18
45 12 25 26 45 31 45 4 0 5 5 1 12 -4 6 -3 8 4 4 7 -4 0 -23 -20 -56z m-124 1
c-4 -17 -9 -30 -11 -27 -3 2 -2 19 2 36 9 41 17 33 9 -9z m66 18 c0 8 2 12 5
9 3 -3 -6 -29 -21 -59 -15 -32 -23 -42 -19 -25 3 15 9 42 12 58 4 21 8 26 14
16 7 -11 9 -10 9 1z m-326 -53 c-3 -15 -8 -25 -11 -23 -2 3 -1 17 3 31 3 15 8
25 11 23 2 -3 1 -17 -3 -31z m466 -31 c-17 -25 -33 -45 -36 -45 -3 0 9 20 26
45 17 25 33 45 36 45 3 0 -9 -20 -26 -45z m-223 3 c-3 -8 -6 -5 -6 6 -1 11 2
17 5 13 3 -3 4 -12 1 -19z m-263 -52 c-3 -15 -8 -25 -11 -23 -2 3 -1 17 3 31
3 15 8 25 11 23 2 -3 1 -17 -3 -31z m241 -51 c-10 -42 -19 -74 -21 -72 -3 2 3
39 12 81 10 42 19 74 21 72 3 -2 -3 -39 -12 -81z m185 15 c-12 -16 -24 -30
-26 -30 -3 0 4 14 16 30 12 17 24 30 26 30 3 0 -4 -13 -16 -30z m-66 -7 c-94
-145 -108 -163 -128 -162 -20 2 -20 2 -1 6 12 2 44 40 79 93 32 50 61 90 63
90 3 0 -3 -12 -13 -27z m-377 -15 c-3 -8 -6 -5 -6 6 -1 11 2 17 5 13 3 -3 4
-12 1 -19z m-10 -40 c-3 -8 -6 -5 -6 6 -1 11 2 17 5 13 3 -3 4 -12 1 -19z
m373 -53 c-17 -25 -33 -45 -36 -45 -3 0 9 20 26 45 17 25 33 45 36 45 3 0 -9
-20 -26 -45z m-383 13 c-3 -8 -6 -5 -6 6 -1 11 2 17 5 13 3 -3 4 -12 1 -19z
m250 -30 c-3 -7 -5 -2 -5 12 0 14 2 19 5 13 2 -7 2 -19 0 -25z m-272 -58 c-9
-41 -17 -33 -9 9 4 17 9 30 11 27 3 -2 2 -19 -2 -36z m332 -27 c-18 -27 -55
-78 -81 -115 -26 -38 -50 -68 -53 -68 -3 0 -1 6 4 13 6 6 42 58 82 115 39 56
74 102 77 102 3 0 -10 -21 -29 -47z m-352 -53 c-9 -41 -17 -33 -9 9 4 17 9 30
11 27 3 -2 2 -19 -2 -36z m-25 -87 c-11 -17 -11 -17 -6 0 3 10 7 26 7 35 1 15
2 15 6 0 2 -10 -1 -25 -7 -35z m-16 -67 c-3 -15 -8 -25 -11 -23 -2 3 -1 17 3
31 3 15 8 25 11 23 2 -3 1 -17 -3 -31z m226 -31 c-17 -25 -33 -45 -36 -45 -3
0 9 20 26 45 17 25 33 45 36 45 3 0 -9 -20 -26 -45z m-246 -49 c-3 -15 -8 -25
-11 -23 -2 3 -1 17 3 31 3 15 8 25 11 23 2 -3 1 -17 -3 -31z m186 -36 c-12
-16 -24 -30 -26 -30 -3 0 4 14 16 30 12 17 24 30 26 30 3 0 -4 -13 -16 -30z
m-205 -40 c-9 -41 -17 -33 -9 9 4 17 9 30 11 27 3 -2 2 -19 -2 -36z m145 -45
c-17 -25 -33 -45 -36 -45 -3 0 9 20 26 45 17 25 33 45 36 45 3 0 -9 -20 -26
-45z m-163 -17 c-3 -8 -6 -5 -6 6 -1 11 2 17 5 13 3 -3 4 -12 1 -19z m-23 -92
c-3 -15 -8 -25 -11 -23 -2 3 -1 17 3 31 3 15 8 25 11 23 2 -3 1 -17 -3 -31z
m80 -43 c-50 -72 -93 -122 -54 -63 42 63 92 130 96 130 3 0 -16 -30 -42 -67z
m-99 -33 c-9 -41 -17 -33 -9 9 4 17 9 30 11 27 3 -2 2 -19 -2 -36z m-25 -87
c-11 -17 -11 -17 -6 0 3 10 7 26 7 35 1 15 2 15 6 0 2 -10 -1 -25 -7 -35z m30
-13 c-12 -16 -24 -30 -26 -30 -3 0 4 14 16 30 12 17 24 30 26 30 3 0 -4 -13
-16 -30z m-43 -61 c-15 -24 -20 -18 -11 16 4 18 9 23 14 14 5 -7 3 -20 -3 -30z"/>
</g>
</svg>
